<svg width="293" height="174" viewBox="0 0 293 174" fill="none" xmlns="http://www.w3.org/2000/svg">
<path d="M116.5 14.3003C114.3 24.0003 137.1 25.2003 146.5 25.3003C149.1 25.3003 151.7 25.1003 154.3 24.6003C162.3 23.0003 179.7 18.7003 177.3 13.0003C174.1 5.60028 164.7 10.7003 164.7 10.7003C164.7 10.7003 165.9 5.10028 149.8 1.40028C133.7 -2.29972 133.7 10.1003 133.7 10.1003C133.7 10.1003 119.3 2.10028 116.5 14.3003Z" fill="#E7F2FB"/>
<path d="M218.8 44C218.9 44.1 219.1 44.2 219.2 44.3L217.5 92.3L240.8 73.4C240.9 73.7 241 74 241 74.4L217.5 93.5L217 107.4L216.1 107L217.1 79.4L203 69.2C203.1 68.9 203.1 68.6 203.2 68.3L217.1 78.3L218.3 44.4C218.5 44.2 218.7 44.1 218.8 44Z" fill="white"/>
<path d="M215.4 94.3002C215.4 94.3002 233.4 57.8002 262 56.7002C279.9 86.1002 250.2 111 250.2 111L216.3 121.7L215.4 94.3002Z" fill="#FFBEA2"/>
<path d="M233.5 70.4004L240.2 87.2004L261.5 56.9004C261.7 56.9004 261.9 56.9004 262.2 56.9004C262.3 57.0004 262.3 57.1004 262.4 57.2004L251 73.4004L267.7 71.6004C267.7 71.8004 267.7 71.9004 267.8 72.1004V72.5004L250.4 74.4004L231.4 101.5L260.7 99.2004C260.5 99.5004 260.3 99.8004 260.1 100.1L230.7 102.4L217 121.6L216.4 121.8V120.9L239.5 88.0004L232.8 71.0004C233 70.8004 233.2 70.6004 233.5 70.4004Z" fill="white"/>
<path d="M222.5 110.5C222.5 110.5 252.4 94.4003 269.7 109.1C262.7 155.1 203.7 149.5 203.7 149.5L222.5 110.5Z" fill="#5C81A2"/>
<path d="M269.7 109.2C269.7 109.4 269.6 109.6 269.6 109.7L227.6 128.4L249.8 139.9C249.5 140.1 249.2 140.3 248.9 140.4L226.5 128.8L210.1 136.1L210.7 134.9L242.6 120.7L249.5 103C249.8 103 250.1 103 250.5 103L243.8 120.2L269.2 108.9C269.4 109 269.6 109.1 269.7 109.2Z" fill="white"/>
<path d="M289.4 77.1002L291.1 81.6002L286.6 80.0002L271.4 73.2002L289.4 77.1002Z" fill="#C9673E"/>
<path d="M291.1 81.6L283.3 80.2L285.4 79.5L291.1 81.6Z" fill="#9C4B2A"/>
<path d="M289.4 77.1L291.3 73L271.4 73.2L289.4 77.1Z" fill="#FFB99C"/>
<path d="M271.4 73.2002L286.6 80.0002L283.5 85.8002L271.4 73.2002Z" fill="#FFB99C"/>
<path d="M288.8 85.7997C288.8 85.7997 288.9 85.7997 288.9 85.6997C289.1 85.5997 289.1 85.2997 288.9 85.1997C288.5 84.6997 288 84.2997 287.5 83.8997C287.3 83.7997 287.1 83.7997 287 83.9997C286.9 84.1997 286.9 84.3997 287.1 84.4997C287.6 84.8997 288 85.2997 288.4 85.6997C288.6 85.7997 288.7 85.7997 288.8 85.7997Z" fill="#FFBEA2"/>
<path d="M278.4 125.3C278.3 125.1 278.4 124.9 278.6 124.8C279.7 124.3 280.7 123.7 281.6 122.8C281.7 122.7 282 122.7 282.1 122.8C282.2 122.9 282.2 123.2 282.1 123.3C281.1 124.2 280 125 278.9 125.5C278.7 125.6 278.4 125.5 278.4 125.3ZM283.1 121.7C282.9 121.6 282.9 121.3 283 121.2C283.7 120.2 284.3 119.1 284.7 118C284.8 117.8 285 117.7 285.2 117.8C285.4 117.9 285.5 118.1 285.4 118.3C284.9 119.5 284.3 120.6 283.6 121.7C283.6 121.8 283.5 121.8 283.4 121.8C283.3 121.8 283.2 121.8 283.1 121.7ZM285.6 116.3C285.4 116.3 285.3 116.1 285.3 115.9V115.7C285.5 114.6 285.6 113.4 285.5 112.2C285.5 112 285.7 111.8 285.9 111.8C286.1 111.8 286.3 112 286.3 112.2C286.3 113.4 286.3 114.7 286.1 115.8V116C286.1 116.1 286 116.2 285.9 116.3C285.7 116.3 285.7 116.3 285.6 116.3ZM285.8 110.4C285.6 110.4 285.4 110.3 285.4 110.1C285.2 109 285 107.7 284.6 106.5C284.5 106.3 284.7 106.1 284.9 106C285.1 105.9 285.3 106.1 285.4 106.3C285.8 107.6 286 108.8 286.2 110C286.1 110.1 286 110.3 285.8 110.4ZM284.4 104.6C284.2 104.7 284 104.6 283.9 104.4C283.9 104.3 283.8 104.2 283.8 104.1C283.4 104.2 283 104.3 282.6 104.4C282.4 104.4 282.2 104.3 282.2 104.1C282.2 103.9 282.3 103.7 282.5 103.7C282.9 103.6 283.2 103.6 283.6 103.5C283.3 102.7 283 101.9 282.6 101C282.5 100.8 282.6 100.6 282.8 100.5C283 100.4 283.2 100.5 283.3 100.7C283.7 101.6 284 102.4 284.3 103.3C284.9 103.1 285.4 102.9 285.9 102.6C286.1 102.5 286.3 102.6 286.4 102.8C286.5 103 286.4 103.2 286.2 103.3C285.7 103.6 285.1 103.8 284.5 104C284.5 104.1 284.6 104.2 284.6 104.3C284.7 104.3 284.6 104.5 284.4 104.6ZM287.6 101.8C287.5 101.6 287.5 101.4 287.7 101.3C288.3 100.8 288.8 100.3 289.2 99.6998C289.5 99.2998 289.7 98.8998 290 98.4998C290.1 98.2998 290.3 98.2998 290.5 98.3998C290.7 98.4998 290.7 98.6998 290.6 98.8998C290.4 99.2998 290.1 99.7998 289.8 100.1C289.3 100.7 288.8 101.3 288.1 101.8C288.1 101.8 288 101.8 288 101.9C287.9 102 287.7 101.9 287.6 101.8ZM280.2 104.4C278.9 104.4 277.6 104.1 276.4 103.7C276.2 103.6 276.1 103.4 276.2 103.2C276.3 103 276.5 102.9 276.7 103C277.8 103.4 279 103.7 280.2 103.7C280.4 103.7 280.6 103.9 280.6 104.1C280.6 104.3 280.5 104.4 280.4 104.4C280.3 104.4 280.3 104.4 280.2 104.4ZM291.1 96.9998C290.9 96.8998 290.8 96.6998 290.9 96.4998C291.2 95.3998 291.4 94.1998 291.4 92.8998C291.4 92.6998 291.6 92.4998 291.8 92.4998C292 92.4998 292.2 92.6998 292.2 92.8998C292.2 94.1998 292.1 95.4998 291.7 96.6998C291.7 96.7998 291.6 96.8998 291.5 96.8998C291.2 96.9998 291.2 96.9998 291.1 96.9998ZM274.4 102.6C274.1 102.4 273.8 102.2 273.6 102C272.9 101.4 272.2 100.6 271.8 99.7998C271.7 99.5998 271.8 99.3998 271.9 99.2998C272.1 99.1998 272.3 99.2998 272.4 99.3998C272.8 100.2 273.4 100.9 274.1 101.4C274.3 101.6 274.6 101.8 274.8 102C275 102.1 275 102.3 274.9 102.5C274.9 102.6 274.8 102.6 274.7 102.6C274.6 102.7 274.5 102.7 274.4 102.6ZM281.6 98.7998C281 97.4998 280.3 96.4998 279.7 95.6998C279.6 95.4998 279.6 95.2998 279.7 95.1998C279.9 95.0998 280.1 95.0998 280.2 95.1998C280.9 95.9998 281.6 97.0998 282.3 98.3998C282.4 98.5998 282.3 98.7998 282.1 98.8998C281.9 99.0998 281.7 98.9998 281.6 98.7998ZM291.5 91.0998C291.3 91.0998 291.1 90.9998 291.1 90.7998C291 90.2998 290.8 89.6998 290.6 89.1998C290.4 88.5998 290.1 87.9998 289.8 87.3998C289.7 87.1998 289.8 86.9998 289.9 86.8998C290.1 86.7998 290.3 86.8998 290.4 86.9998C290.7 87.5998 291.1 88.1998 291.3 88.8998C291.5 89.3998 291.7 89.9998 291.8 90.5998C291.8 90.7998 291.7 90.9998 291.5 91.0998ZM271.4 97.8998C271.2 97.8998 271 97.7998 271 97.5998C270.9 96.4998 271.1 95.4998 271.6 94.6998C271.8 94.3998 272.1 94.0998 272.3 93.8998C272.5 93.7998 272.7 93.7998 272.8 93.9998C272.9 94.1998 272.9 94.3998 272.7 94.4998C272.5 94.6998 272.3 94.8998 272.1 95.0998C271.6 95.7998 271.5 96.5998 271.6 97.4998C271.7 97.5998 271.6 97.7998 271.4 97.8998C271.4 97.7998 271.4 97.7998 271.4 97.8998ZM278 94.3998C277 93.7998 275.8 93.4998 274.6 93.6998C274.4 93.6998 274.2 93.5998 274.2 93.3998C274.2 93.1998 274.3 92.9998 274.5 92.9998C275.8 92.7998 277.2 93.0998 278.3 93.7998C278.5 93.8998 278.5 94.0998 278.4 94.2998C278.4 94.3998 278.3 94.3998 278.2 94.4998C278.3 94.3998 278.1 94.3998 278 94.3998Z" fill="#FFBEA2"/>
<path d="M276.7 126.2C276.9 126.1 277 126 276.9 125.8C276.9 125.6 276.7 125.5 276.5 125.5C275.9 125.6 275.3 125.6 274.7 125.6C274.5 125.6 274.3 125.7 274.3 125.9C274.3 126.1 274.4 126.3 274.6 126.3C275.3 126.3 275.9 126.3 276.7 126.2C276.6 126.2 276.6 126.2 276.7 126.2Z" fill="#FFBEA2"/>
<path d="M25.2 162.501C25.2 168.501 28.9 173.301 33.5 173.301H241.4C246 173.301 249.7 168.501 249.7 162.501H25.2Z" fill="#0F3A5D"/>
<path d="M227.5 42.4014H47.3999V155.501H227.5V42.4014Z" fill="#84A9FF"/>
<path d="M38 162.501V36.801C38 33.301 40.8 30.501 44.3 30.501H230.7C234.2 30.501 237 33.301 237 36.801V162.501H38Z" fill="#658197"/>
<path d="M232.4 34.7012H42.5V159.401H232.4V34.7012Z" fill="#FFBEA2"/>
<path d="M208.3 16.6006H66.7V153.001H208.3V16.6006Z" fill="#E5E6EB"/>
<path d="M207.6 17.2002H67.3V152.4H207.6V17.2002Z" fill="white"/>
<path d="M208.3 16.6006H66.7V26.7006H208.3V16.6006Z" fill="#0F3A5D"/>
<path d="M73.9 23.401C74.8388 23.401 75.6 22.6399 75.6 21.701C75.6 20.7621 74.8388 20.001 73.9 20.001C72.9611 20.001 72.2 20.7621 72.2 21.701C72.2 22.6399 72.9611 23.401 73.9 23.401Z" fill="white"/>
<path d="M81 23.401C81.9389 23.401 82.7 22.6399 82.7 21.701C82.7 20.7621 81.9389 20.001 81 20.001C80.0612 20.001 79.3 20.7621 79.3 21.701C79.3 22.6399 80.0612 23.401 81 23.401Z" fill="white"/>
<path d="M88.2 23.401C89.1389 23.401 89.9 22.6399 89.9 21.701C89.9 20.7621 89.1389 20.001 88.2 20.001C87.2611 20.001 86.5 20.7621 86.5 21.701C86.5 22.6399 87.2611 23.401 88.2 23.401Z" fill="white"/>
<path d="M157.1 45.9008V89.9008C157.1 91.3008 155.9 92.5008 154.5 92.5008H55.8C54.4 92.5008 53.2 91.3008 53.2 89.9008V45.9008C53.2 44.5008 54.4 43.3008 55.8 43.3008H154.5C155.9 43.3008 157.1 44.5008 157.1 45.9008Z" fill="white" stroke="#E7F2FB" stroke-width="0.5521" stroke-miterlimit="2.6131"/>
<path d="M157.1 45.9008V50.5008H53.1V45.9008C53.1 44.5008 54.3 43.3008 55.7 43.3008H154.4C155.9 43.3008 157.1 44.5008 157.1 45.9008Z" fill="#FF7C44"/>
<path d="M81.5 53.9004H57.6V84.8004H81.5V53.9004Z" fill="white"/>
<path d="M79.8 74.3996V83.3996H59.4V74.2996C59.4 73.1996 60.1 72.1996 61.1 71.6996L64.5 70.1996L69.2 68.0996L69.6 68.2996L74.7 70.3996L78.1 71.7996C79.1 72.2996 79.8 73.2996 79.8 74.3996Z" fill="#212B53"/>
<path d="M74.7 70.5002C74.5 71.3002 73.5 75.4002 72 76.5002C72 76.5002 69.8 75.7002 69.6 74.8002C69.4 75.8002 67.2 76.5002 67.2 76.5002C65.5 75.2002 64.5 70.3002 64.5 70.3002L69.2 68.2002L69.6 68.4002L74.7 70.5002Z" fill="#658197"/>
<path d="M73.3001 61.7998V59.8998L65.8001 59.7998V61.7998C65.5001 61.7998 65.2001 62.0998 65.2001 62.3998V64.6998C65.2001 64.9998 65.5001 65.2998 65.8001 65.2998V65.9998C65.8001 66.8998 66.1001 67.6998 66.6001 68.2998V70.9998C66.6001 72.5998 67.9001 73.8998 69.5001 73.8998C71.1001 73.8998 72.4001 72.5998 72.4001 70.9998V68.3998C72.9001 67.7998 73.2001 66.9998 73.2001 66.0998V65.4998C73.5001 65.4998 73.8001 65.1998 73.8001 64.8998V62.5998C73.9001 62.0998 73.7001 61.7998 73.3001 61.7998Z" fill="#BE8E69"/>
<path d="M70.8 57.3C69.7 57 68.7 56.9 67.7 57.3C66 57.9 64.7 59.3 65.1 61V61.1C65.3 62.4 66.7 63 67.8 62.3C68.9 61.5 70.3 60.9 71.9 60.9L73.4 61.1C73.7 59.3 72.5 57.9 70.8 57.3Z" fill="#231F20"/>
<path d="M69.6001 77.5002C69.821 77.5002 70.0001 77.3211 70.0001 77.1002C70.0001 76.8793 69.821 76.7002 69.6001 76.7002C69.3792 76.7002 69.2001 76.8793 69.2001 77.1002C69.2001 77.3211 69.3792 77.5002 69.6001 77.5002Z" fill="#658197"/>
<path d="M69.6001 79.5998C69.821 79.5998 70.0001 79.4207 70.0001 79.1998C70.0001 78.9789 69.821 78.7998 69.6001 78.7998C69.3792 78.7998 69.2001 78.9789 69.2001 79.1998C69.2001 79.4207 69.3792 79.5998 69.6001 79.5998Z" fill="#658197"/>
<path d="M70.0001 81.1998C70.0001 81.3998 69.8001 81.5998 69.6001 81.5998C69.4001 81.5998 69.2001 81.3998 69.2001 81.1998C69.2001 80.9998 69.4001 80.7998 69.6001 80.7998C69.8001 80.7998 70.0001 80.9998 70.0001 81.1998Z" fill="#658197"/>
<path d="M152.7 56.3008H87.5V57.7008H152.7V56.3008Z" fill="#5C81A2"/>
<path d="M152.7 62.3008H87.5V63.7008H152.7V62.3008Z" fill="#5C81A2"/>
<path d="M152.7 68.3008H87.5V69.7008H152.7V68.3008Z" fill="#5C81A2"/>
<path d="M152.7 74.2012H87.5V75.6012H152.7V74.2012Z" fill="#5C81A2"/>
<path d="M152.7 80.2012H87.5V81.6012H152.7V80.2012Z" fill="#5C81A2"/>
<path d="M59.7 47.9004C60.2522 47.9004 60.7 47.4527 60.7 46.9004C60.7 46.3481 60.2522 45.9004 59.7 45.9004C59.1477 45.9004 58.7 46.3481 58.7 46.9004C58.7 47.4527 59.1477 47.9004 59.7 47.9004Z" fill="white"/>
<path d="M65.1 47.9004C65.6523 47.9004 66.1 47.4527 66.1 46.9004C66.1 46.3481 65.6523 45.9004 65.1 45.9004C64.5477 45.9004 64.1 46.3481 64.1 46.9004C64.1 47.4527 64.5477 47.9004 65.1 47.9004Z" fill="white"/>
<path d="M70.6 47.9004C71.1523 47.9004 71.6 47.4527 71.6 46.9004C71.6 46.3481 71.1523 45.9004 70.6 45.9004C70.0477 45.9004 69.6 46.3481 69.6 46.9004C69.6 47.4527 70.0477 47.9004 70.6 47.9004Z" fill="white"/>
<path d="M21.2999 94.3008H20.2V90.0008H21.2999V94.3008ZM21.2999 85.7008H20.2V81.4008H21.2999V85.7008ZM21.2999 77.0008H20.2V72.7008H21.2999V77.0008ZM21.2999 68.4008H20.2V64.1008H21.2999V68.4008ZM21.2999 59.8008H20.2V55.5008H21.2999V59.8008ZM21.2999 51.1008H20.2V46.8008H21.2999V51.1008Z" fill="#63C0C4"/>
<path d="M22.7999 101.301H20.2V98.6006H21.2999V100.201H22.7999V101.301Z" fill="#63C0C4"/>
<path d="M64.3 101.301H60.2V100.201H64.3V101.301ZM56 101.301H51.9V100.201H56V101.301ZM47.7 101.301H43.6V100.201H47.7V101.301ZM39.4 101.301H35.3V100.201H39.4V101.301ZM31.1 101.301H27V100.201H31.1V101.301Z" fill="#63C0C4"/>
<path d="M70.9999 102.801H69.9999V101.301H68.3999V100.201H70.9999V102.801Z" fill="#63C0C4"/>
<path d="M71.1 105.301H70V107.701H71.1V105.301Z" fill="#63C0C4"/>
<path d="M71.1 110.201H70V112.301H71.1V110.201Z" fill="#84A9FF"/>
<path d="M83.1 115.5H56.4V137.7H83.1V115.5Z" fill="#0F3A5D"/>
<path d="M62.1 116.4H56.4V135.5H62.1V116.4Z" fill="#0F3A5D"/>
<path d="M85 108.9H54.5C53.6 108.9 52.8 109.7 52.8 110.6V116.5C52.8 117.4 53.6 118.2 54.5 118.2H85C85.9 118.2 86.7 117.4 86.7 116.5V110.6C86.7 109.7 85.9 108.9 85 108.9Z" fill="#658197"/>
<path d="M85.4 114.5H84.6V111H71.4V110.2H85.4V114.5Z" fill="white"/>
<path d="M59.9 110.601H54.5V116.401H59.9V110.601Z" fill="white"/>
<path d="M85 120.5H54.5C53.6 120.5 52.8 121.3 52.8 122.2V128.1C52.8 129 53.6 129.8 54.5 129.8H85C85.9 129.8 86.7 129 86.7 128.1V122.2C86.7 121.3 85.9 120.5 85 120.5Z" fill="#658197"/>
<path d="M85.4 126.1H84.6V122.6H71.4V121.8H85.4V126.1Z" fill="white"/>
<path d="M59.9 122.2H54.5V128H59.9V122.2Z" fill="white"/>
<path d="M85 132.101H54.5C53.6 132.101 52.8 132.901 52.8 133.801V139.701C52.8 140.601 53.6 141.401 54.5 141.401H85C85.9 141.401 86.7 140.601 86.7 139.701V133.801C86.7 132.901 85.9 132.101 85 132.101Z" fill="#658197"/>
<path d="M85.4 137.7H84.6V134.2H71.4V133.4H85.4V137.7Z" fill="white"/>
<path d="M59.9 133.801H54.5V139.601H59.9V133.801Z" fill="white"/>
<path d="M89.5 141.301H50.8V164.501H89.5V141.301Z" fill="#0F3A5D"/>
<path d="M41.5 37.801C41.5 40.901 39.9 43.701 37.5 45.301H6C2.5 44.201 0 41.001 0 37.201C0 32.501 3.8 28.701 8.5 28.701C8.6 28.701 8.7 28.701 8.8 28.701C10.5 23.601 15.3 20.001 21 20.001C26.7 20.001 31.6 23.701 33.4 28.801C38 29.201 41.5 33.101 41.5 37.801Z" fill="#E7F2FB"/>
<path d="M21.7999 32.1006H19.7V45.3006H21.7999V32.1006Z" fill="#63C0C4"/>
<path d="M23.9 33.001L20.7 27.501L17.6 33.001H23.9Z" fill="#63C0C4"/>
<path d="M149.8 163.8C149.9 163.6 150.1 163.6 150.3 163.5C150.5 163.5 150.7 163.5 150.9 163.5C151.4 163.5 151.9 163.3 152.3 163.1C152.5 163 152.7 162.8 153 162.7H154.4C154.6 162.9 154.7 163.2 154.8 163.5C154.9 163.8 154.9 164 154.8 164.3V164.6H149.6V164.3C149.7 164.1 149.7 163.9 149.8 163.8Z" fill="#212B53"/>
<path d="M154.6 161.101L154.5 162.701H153L152.9 161.201L154.6 161.101Z" fill="#BE8E69"/>
<path d="M135.9 163.201C136 163.101 136.3 163.001 136.5 163.001C136.7 163.001 136.9 163.001 137.1 163.001C137.6 163.001 138.1 162.901 138.6 162.801C138.8 162.701 139.1 162.601 139.3 162.501L140.7 162.701C140.9 162.901 141 163.201 141 163.501C141 163.801 141 164.001 141 164.301V164.601L135.8 164.001V163.701C135.7 163.501 135.7 163.301 135.9 163.201Z" fill="#212B53"/>
<path d="M155.9 138.101C156.2 132.601 156.1 124.801 154.7 120.401C154.7 120.301 143.1 121.401 143.1 121.401L140.4 132.501C139.5 136.401 139 140.401 139 144.401L139.1 161.001L141 161.101L144.6 139.101C145.9 136.501 147.4 133.501 148.5 130.501L152.7 161.201L154.7 161.101C154.8 161.101 155.9 138.101 155.9 138.101Z" fill="#212B53"/>
<path d="M141 161.101L140.6 162.701L139.2 162.501L139.3 161.001L141 161.101Z" fill="#BE8E69"/>
<path d="M129.9 85.2006C130.3 85.1006 130.7 85.2006 130.8 85.5006C131.8 87.4006 132.8 89.3006 134 91.1006C135.2 92.9006 136.4 94.6006 137.8 96.2006C139.2 97.8006 140.6 99.3006 142.2 100.601C143 101.301 143.8 101.901 144.6 102.501C144.8 102.601 145 102.801 145.2 102.901L145.8 103.301C146.2 103.601 146.7 103.901 147.1 104.101C147.2 104.201 147.4 104.301 147.5 104.401C147.6 104.501 147.7 104.601 147.8 104.801C148 105.101 148.1 105.401 148.1 105.701C148.2 106.301 148.1 107.001 147.8 107.601C147.4 108.201 146.8 108.601 146.2 108.701C145.9 108.801 145.5 108.801 145.2 108.701C145 108.701 144.9 108.601 144.7 108.501C144.5 108.401 144.4 108.301 144.2 108.201C143.7 107.801 143.3 107.501 142.9 107.101L142.3 106.501C142.1 106.301 141.9 106.101 141.7 105.901C140.9 105.101 140.1 104.301 139.3 103.401C137.8 101.701 136.4 99.9006 135.2 98.0006C134 96.1006 132.9 94.1006 132 92.1006C131.1 90.1006 130.3 88.0006 129.5 86.0006C129.4 85.7006 129.5 85.3006 129.9 85.2006Z" fill="#BE8E69"/>
<path d="M138.9 104.701L143.4 108.201C144.8 109.301 146.7 109.101 147.8 107.801C148.9 106.401 148.7 104.301 147.3 103.301L142.8 99.8008L138.9 104.701Z" fill="#FF8855"/>
<path d="M149.3 101.7C144.9 101.7 141.6 105.5 142.2 109.8L143.1 121.3C147.9 123.1 151.6 122.1 154.7 120.3L155.2 108.1C155.5 104.7 152.8 101.8 149.3 101.7Z" fill="#FF8855"/>
<path d="M154.2 104.101C154.6 104.901 154.9 105.601 155.1 106.501H155.2C155 105.701 154.7 104.901 154.2 104.101Z" fill="white"/>
<path d="M150.4 93.8008C150.4 93.8008 153.4 94.5008 152.7 97.9008C152.2 100.101 150.6 101.301 148.2 101.701L150.4 93.8008Z" fill="#231F20"/>
<path d="M147.3 99.4002L147.5 102.9C148.5 103.5 149.4 103.4 150.3 102.7L150.1 99.2002L147.3 99.4002Z" fill="#BE8E69"/>
<path d="M147.3 99.8002L147.4 100.9C147.8 101.1 148.3 101.3 148.9 101.3H149C149.5 101.3 150 101.1 150.3 100.7L150.2 99.7002L147.3 99.8002Z" fill="#BE8E69"/>
<path d="M145.9 95.4008L146.1 97.9008V98.5008C146.2 99.9008 147.4 101.001 148.8 101.001C148.9 101.001 149.1 101.001 149.2 100.901C149.3 100.901 149.3 100.901 149.4 100.801C149.6 100.701 149.8 100.601 149.9 100.401C150.2 100.001 150.4 99.6008 150.6 99.2008C150.8 98.8008 150.9 98.5008 151 98.1008C151.1 97.7008 151.2 97.2008 151.1 96.8008L150.9 94.6008L146.6 94.3008L145.9 95.4008Z" fill="#BE8E69"/>
<path d="M150.3 94.7003C150.3 94.7003 145.3 95.0003 146.3 99.4003C146.3 99.4003 144.7 96.2003 146.3 94.1003C148.1 91.8003 150.4 92.5003 151.2 93.6003C152 94.7003 152.7 96.6003 150.3 97.9003C150.4 97.9003 151.2 96.3003 150.3 94.7003Z" fill="#231F20"/>
<path d="M150.2 97.4008C150.2 98.0008 150.7 98.4008 151.3 98.4008C151.9 98.4008 152.3 97.9008 152.3 97.3008C152.3 96.7008 151.8 96.3008 151.2 96.3008C150.7 96.3008 150.2 96.8008 150.2 97.4008Z" fill="#BE8E69"/>
<path d="M161.5 130.901C161.1 130.901 160.8 130.701 160.7 130.301C160.3 128.201 159.8 126.101 159.3 124.001C158.7 122.001 158 120.001 157.2 118.001C156.4 116.101 155.4 114.201 154.3 112.501C153.7 111.601 153.2 110.801 152.5 110.001C152.3 109.801 152.2 109.601 152 109.401L151.5 108.801C151.2 108.401 150.8 108.001 150.5 107.601C150.4 107.501 150.3 107.301 150.2 107.201C150.1 107.101 150.1 106.901 150 106.801C149.9 106.501 149.9 106.201 149.9 105.901C150 105.301 150.3 104.601 150.8 104.101C151.3 103.601 152 103.401 152.7 103.501C153 103.501 153.4 103.601 153.7 103.801C153.8 103.901 154 104.001 154.1 104.101C154.2 104.201 154.3 104.401 154.5 104.501C154.8 105.001 155.1 105.501 155.5 106.001L155.9 106.701C156 106.901 156.2 107.201 156.3 107.401C156.9 108.401 157.4 109.401 157.9 110.501C158.9 112.601 159.6 114.701 160.2 116.901C160.8 119.101 161.3 121.301 161.6 123.501C161.9 125.701 162.1 127.901 162.2 130.101C162.1 130.501 161.8 130.801 161.5 130.901Z" fill="#BE8E69"/>
<path d="M158.6 109.501L155.3 104.801C154.3 103.401 152.4 102.901 151 103.901C149.6 104.901 149.2 107.001 150.2 108.401L153.5 113.101L158.6 109.501Z" fill="#FF8855"/>
<path d="M190.443 164.654H224.443V152.954H190.443V164.654Z" fill="#84A9FF"/>
<path d="M220.8 145.7H194.1V160.9H220.8V145.7Z" fill="#84A9FF"/>
<path d="M199.8 146.4H194.1V159.5H199.8V146.4Z" fill="#050F64"/>
<path d="M222.7 143.7H192.2C191.3 143.7 190.5 144.5 190.5 145.4V151.3C190.5 152.2 191.3 153 192.2 153H222.7C223.6 153 224.4 152.2 224.4 151.3V145.4C224.4 144.5 223.6 143.7 222.7 143.7Z" fill="#155BCD"/>
<path d="M223.1 149.3H222.3V145.8H209.1V145H223.1V149.3Z" fill="white"/>
<path d="M197.6 145.4H192.2V151.2H197.6V145.4Z" fill="#FFBD00"/>
<path d="M222.7 155.3H192.2C191.3 155.3 190.5 156.1 190.5 157V162.9C190.5 163.8 191.3 164.6 192.2 164.6H222.7C223.6 164.6 224.4 163.8 224.4 162.9V157C224.4 156.1 223.6 155.3 222.7 155.3Z" fill="#155BCD"/>
<path d="M223.1 160.9H222.3V157.4H209.1V156.6H223.1V160.9Z" fill="white"/>
<path d="M197.6 157H192.2V162.8H197.6V157Z" fill="#FFBD00"/>
<path d="M192.8 164.601H186C186 164.401 186.1 164.101 186.2 164.001C186.4 163.801 186.6 163.701 186.9 163.601C187.2 163.601 187.4 163.601 187.7 163.601C188.3 163.601 189 163.401 189.5 163.101C189.8 162.901 190.1 162.701 190.4 162.601H192.3C192.6 162.901 192.7 163.201 192.8 163.601C192.9 163.901 192.9 164.201 192.8 164.601Z" fill="#658197"/>
<path d="M212.7 140C212.3 138.2 210.6 137 208.8 137.4L195 139.4C194.9 139.4 194.9 139.4 194.8 139.4H194.7C193.7 139.6 192.9 140.4 192.7 141.4C192.7 141.5 192.7 141.6 192.7 141.6L190.2 162.4L192.6 162.6L197.3 144.3L209.1 143.9C209.4 143.9 209.8 143.9 210.2 143.9C211.9 143.5 213 141.8 212.7 140Z" fill="#212B53"/>
<path d="M200.6 164.6L193.8 164.7C193.8 164.5 193.8 164.2 194 164.1C194.2 163.9 194.4 163.8 194.7 163.7C195 163.7 195.2 163.7 195.5 163.6C196.1 163.6 196.8 163.4 197.3 163C197.6 162.8 197.9 162.6 198.2 162.5H200.1C200.4 162.8 200.5 163.1 200.6 163.5C200.6 163.9 200.6 164.3 200.6 164.6Z" fill="#658197"/>
<path d="M200.2 162.9L197.8 162.6L200.8 141.9C200.8 141.8 200.8 141.7 200.8 141.7C201 140.7 201.7 140 202.7 139.8C202.8 139.8 202.8 139.8 202.9 139.8L216.6 137.2C218.4 136.8 220.2 137.8 220.6 139.6C220.9 140.7 220.6 141.8 219.8 142.7C218.9 143.6 217.7 143.8 216.5 143.9C216 143.9 215.4 144 214.9 144C214.1 144.1 213.3 144.1 212.5 144.2C211.6 144.3 210.7 144.3 209.8 144.4C209 144.5 208.2 144.5 207.4 144.6C206.8 144.6 206.3 144.7 205.7 144.7H205.2L200.2 162.9Z" fill="#212B53"/>
<path d="M184.5 114C184.8 113.7 185.2 113.7 185.5 114C185.9 114.3 186.3 114.7 186.6 115L186.9 115.2C187.1 115.3 187.2 115.5 187.4 115.6C187.5 115.7 187.6 115.7 187.7 115.8L188.1 116.1L188.5 116.4C188.6 116.5 188.7 116.5 188.8 116.6C189 116.7 189.1 116.8 189.3 117L190 117.5L190.8 118C191 118.1 191.1 118.2 191.3 118.3C191.4 118.4 191.5 118.4 191.6 118.5C192.7 119.2 193.7 119.7 194.8 120.1C195.9 120.5 197 120.8 198.1 120.9C200.1 121.1 202.2 120.9 204.8 120.1C205.8 119.8 206.9 119.4 208.2 118.9C209.2 118.5 210.3 118.1 211.6 117.5C212.3 117.2 213 117.2 213.7 117.5C214.3 117.8 214.7 118.2 214.9 118.8C215.1 119.4 215.1 120 214.8 120.6C214.5 121.3 213.9 121.8 213.2 122C211.8 122.4 210.6 122.8 209.5 123.1C208.1 123.5 206.8 123.7 205.7 124C204.2 124.3 202.9 124.4 201.7 124.4C201.6 124.4 201.5 124.4 201.3 124.4C200 124.4 198.7 124.3 197.5 124C196.2 123.7 194.9 123.2 193.6 122.6C192.5 122 191.4 121.3 190.3 120.4C190.2 120.3 190.1 120.3 190 120.2C189.8 120.1 189.7 119.9 189.5 119.8L188.8 119.2L188.1 118.6C187.9 118.5 187.8 118.3 187.6 118.2C187.5 118.1 187.4 118 187.4 118L187.1 117.7L186.8 117.4C186.7 117.3 186.6 117.2 186.6 117.2C186.5 117.1 186.3 116.9 186.2 116.8L186 116.5C185.6 116.1 185.3 115.8 184.9 115.4C184.2 114.7 184.2 114.3 184.5 114Z" fill="#A87C4F"/>
<path d="M206.6 125.101L212.6 123.101C214.4 122.501 215.5 120.601 214.9 118.801L214.8 118.701C214.2 116.901 212.2 115.901 210.4 116.501L204.4 118.501L206.6 125.101Z" fill="#00666B"/>
<path d="M215 116.001C211.3 115.401 207.9 118.101 207.6 121.801L206.4 137.701C210 141.101 217 142.501 220.8 140.501L221.5 124.001C221.7 120.101 218.9 116.601 215 116.001Z" fill="#00666B"/>
<path d="M213.8 113.8L213.1 118.3C214 119.1 214.9 119.2 216 118.8L216.7 114.3L213.8 113.8Z" fill="#A87C4F"/>
<path d="M213.8 113.8L213.5 115.8C213.7 115.9 213.9 116 214.1 116.1C214.2 116.1 214.2 116.1 214.3 116.1C215.1 116.2 215.9 116 216.5 115.4L216.7 114.2L213.8 113.8Z" fill="#A87C4F"/>
<path d="M212.9 110.8L212.6 113.4C212.5 114.5 213.2 115.4 214.2 115.7C215.1 115.9 216.1 115.6 216.7 114.8C217.1 114.3 217.4 113.7 217.8 113C218.4 111.9 218.3 110.7 217.6 109.7C217 108.9 216.2 108.5 215.1 108.6C214 108.8 213.1 109.7 212.9 110.8Z" fill="#A87C4F"/>
<path d="M192.4 136.9C192.9 136.9 193.4 136.9 193.9 136.9H194.3C194.5 136.9 194.7 136.9 194.9 136.9C195 136.9 195.1 136.9 195.2 136.9H195.7H196.2C196.3 136.9 196.4 136.9 196.5 136.9C196.7 136.9 196.9 136.9 197.1 136.8L198 136.7L198.9 136.6C199.1 136.6 199.3 136.5 199.5 136.5C199.6 136.5 199.7 136.5 199.8 136.4C201.1 136.2 202.2 135.9 203.2 135.5C204.3 135.1 205.3 134.6 206.2 133.9C207.8 132.7 209.3 131.1 210.7 128.8C211.3 127.9 211.8 126.9 212.5 125.7C213 124.7 213.5 123.7 214.1 122.4C214.4 121.7 215 121.2 215.7 121C216.3 120.8 216.9 120.8 217.5 121.1C218 121.4 218.4 121.9 218.6 122.5C218.8 123.2 218.7 124 218.3 124.6C217.5 125.9 216.9 126.9 216.2 127.8C215.4 129 214.6 130.1 213.9 131C213 132.2 212.1 133.1 211.2 134C210.1 135 209 135.8 207.9 136.4C206.7 137 205.5 137.5 204.1 137.9C202.9 138.2 201.6 138.4 200.2 138.5C200.1 138.5 200 138.5 199.9 138.5C199.7 138.5 199.5 138.5 199.3 138.5H198.3H197.3C197.1 138.5 196.9 138.5 196.7 138.5C196.6 138.5 196.5 138.5 196.4 138.5H195.9H195.4C195.3 138.5 195.2 138.5 195.1 138.5C194.9 138.5 194.7 138.5 194.5 138.5H194.1C193.6 138.5 193.1 138.4 192.6 138.4C192.2 138.4 191.9 138 191.9 137.7C191.7 137.2 192 136.9 192.4 136.9Z" fill="#A87C4F"/>
<path d="M215.3 131.2L218.5 125.8C219.5 124.2 219.1 122.1 217.4 121.1H217.3C215.7 120.1 213.5 120.7 212.6 122.3L209.4 127.7L215.3 131.2Z" fill="#00666B"/>
<path d="M212.2 111.2C212 111 212.1 110.6 212.2 110.3C212.3 110 212.4 109.7 212.4 109.4C212.3 109 212 108.8 212 108.4C212 108 212.3 107.8 212.6 107.6C213.3 107.2 214.1 106.7 214.8 106.3C215.1 106.1 215.4 105.9 215.8 105.9C216.1 105.8 216.5 105.9 216.7 106.3C216.8 106.5 216.9 106.7 217 106.8C217.3 107.2 217.7 107.1 218.1 107.1C218.6 107.1 219.1 107.2 219.5 107.5C219.9 107.9 220.1 108.6 219.8 109.1C219.7 109.3 219.5 109.5 219.3 109.7C219.1 109.9 219 110.2 219 110.4C219 110.8 219.3 111 219.6 111.3C219.9 111.7 220 112.3 219.9 112.8C219.8 113.3 219.5 113.8 219.1 114C218.7 114.2 218.3 114.2 218.1 113.7C217.9 113.2 218.2 112.5 217.9 112.2C217.5 111.8 216.8 112.5 216.4 112.1C216.2 111.9 216.2 111.4 216.1 111.2C215.9 110.8 215.5 110.9 215.1 110.9C214.7 110.9 214.4 110.9 214.1 110.9C213.8 110.9 213.5 110.9 213.2 111.1C212.9 111.3 212.5 111.6 212.2 111.2Z" fill="#231F20"/>
<path d="M216.7 112.601C216.6 113.101 217 113.701 217.6 113.701C218.2 113.801 218.8 113.401 218.9 112.901C219 112.401 218.6 111.801 218 111.801C217.3 111.701 216.8 112.101 216.7 112.601Z" fill="#A87C4F"/>
<path d="M205.315 134.682L185.378 137.933L185.49 138.624L205.428 135.373L205.315 134.682Z" fill="#0F3A5D"/>
<path d="M185.4 138L197.8 136L192.3 126.5L179.9 128.5L185.4 138Z" fill="#0F3A5D"/>
<path d="M188.3 133.2C188.7 134.2 189.4 134.9 189.7 134.7C190.1 134.5 190 133.6 189.6 132.6C189.2 131.6 188.5 130.9 188.2 131.1C187.8 131.3 187.9 132.2 188.3 133.2Z" fill="white"/>
<path d="M97.9 105.601C97.9 105.601 96.9 109.501 93.5 109.101C90.9 108.701 88.6001 105.401 91.3001 102.401C91.3001 102.401 90.4001 100.001 91.8001 99.1009C91.8001 99.1009 91.0001 96.6009 93.3001 95.1009C95.6001 93.6009 95.7001 92.6009 98.8001 92.9009C101.9 93.2009 103.4 95.1009 102.9 96.8009C101.9 99.8009 101.3 99.1009 102.4 100.601C103.1 101.501 102.3 103.201 101.6 103.901C100.4 105.001 99.9001 104.101 100.3 105.301C100.7 106.501 100.1 107.501 98.9 107.101C97.6 106.601 99.6 104.501 97.9 105.601Z" fill="#FFD147"/>
<path d="M113.9 114.401L112.5 115.201L113.5 116.501L114.7 115.501C115 115.201 115.1 114.801 114.9 114.501C114.6 114.201 114.2 114.101 113.9 114.401Z" fill="#EA8096"/>
<path d="M113.2 115L114.3 116.6C113.9 116.9 113.6 117.1 113.2 117.4C112.8 117.6 112.4 117.8 111.9 118C111.4 118.2 110.9 118.3 110.3 118.3C110 118.3 109.7 118.3 109.5 118.2C109.4 118.2 109.2 118.1 109.1 118.1C109 118.1 109 118.1 108.9 118L108.7 117.9L108.5 117.8C108.4 117.8 108.4 117.7 108.3 117.7C108.2 117.6 108.1 117.6 107.9 117.5C107.7 117.4 107.4 117.3 107.2 117.1C107.1 117 107 117 106.9 116.9L106.6 116.7C106.4 116.6 106.2 116.4 106 116.3C105.3 115.7 104.7 115 104.1 114.4C103.5 113.7 103 113.1 102.5 112.4C102.4 112.2 102.2 112.1 102.1 111.9L101.7 111.4C101.5 111.1 101.2 110.7 101 110.4C100.1 109 99.2 107.6 98.3 106.2C98.3 106.2 98.3 106.2 98.3 106.1C97.9 105.3 98.5 104.1 99.8 103.4C101.1 102.7 102.5 102.9 102.9 103.8C103.5 105.3 104.2 106.8 104.8 108.2C105 108.6 105.1 108.9 105.3 109.3L105.6 109.8C105.7 110 105.8 110.2 105.9 110.3C106.3 111 106.6 111.7 107 112.3C107.4 112.9 107.8 113.6 108.3 114.1C108.4 114.2 108.5 114.4 108.6 114.5L108.8 114.7L109 114.9C109.1 115 109.2 115.1 109.4 115.2C109.5 115.2 109.5 115.3 109.6 115.3L109.7 115.4H109.8L109.9 115.5H110C110.1 115.5 110.1 115.6 110.2 115.6C110.3 115.6 110.4 115.7 110.6 115.7C110.9 115.7 111.1 115.8 111.4 115.7H111.5H111.6C111.7 115.7 111.8 115.7 111.8 115.6L112 115.5C112.1 115.5 112.2 115.4 112.2 115.4C112.6 115.4 112.9 115.2 113.2 115Z" fill="#017C8B"/>
<path d="M112.8 108.601L109.4 115.101L108.7 115.001L112.1 108.501L112.8 108.601Z" fill="#155BCD"/>
<path d="M121.3 109.101L116.4 117.501L105 114.201L109.6 105.701L121.3 109.101Z" fill="#0F3A5D"/>
<path d="M97.8 162.4C97.8 162.4 98.6 163.6 99.8 164.1L96.1 164L96 163.6C96 163.6 96.2 163 96.2 162.4H97.8Z" fill="#BE8E69"/>
<path d="M96.2 164.6H100.9C101.1 164.6 101.1 164.4 101 164.3L99.4 163.4C99.2 163.4 99.2 163.5 99.1 163.6C99.1 163.7 99 163.8 98.9 163.8H97C96.8 163.8 96.5 163.7 96.3 163.6L96 163.5C95.9 163.5 95.9 163.5 95.9 163.6V164.3C95.9 164.4 96 164.6 96.2 164.6Z" fill="#212B53"/>
<path d="M99.7001 160.701C99.7001 160.701 100.1 162.101 101 163.001L97.6001 161.601V161.201C97.6001 161.201 98.0001 160.701 98.2001 160.101L99.7001 160.701Z" fill="#BE8E69"/>
<path d="M97.5001 162.2L101.9 163.801C102.1 163.901 102.2 163.7 102.1 163.5L100.9 162.101C100.8 162.001 100.6 162.1 100.6 162.2C100.5 162.3 100.4 162.301 100.3 162.301L98.5001 161.601C98.3001 161.501 98.1001 161.4 97.9001 161.2L97.7001 161C97.7001 160.9 97.6001 161 97.5001 161L97.2001 161.7C97.2001 162 97.3001 162.1 97.5001 162.2Z" fill="#212B53"/>
<path d="M107.3 136.701C107.3 136.601 107.3 136.501 107.2 136.401C107.2 136.401 102.8 120.901 102.8 120.801C102.2 118.801 100.5 117.901 98.4 118.401C96.4 118.901 95.1 120.901 95.6 122.901C96.5 129.301 98.3 134.501 101.5 138.001L98.2 160.001L99.8 160.601L107.2 138.201C107.2 138.101 107.3 138.001 107.3 137.901C107.4 137.601 107.4 137.101 107.3 136.701Z" fill="#00666B"/>
<path d="M96 118.401C93.9 118.301 92.4 118.801 92.2 120.901C92 121.701 92 121.801 92 122.101C91 128.701 91.3 134.201 93.6 138.501L96.2 162.301L97.9 162.501L99.5 122.301C99.6 120.301 98.1 118.501 96 118.401Z" fill="#00666B"/>
<path d="M97.5 101.701C101.8 101.701 105 105.501 104.4 109.701L102.8 120.901C99.8 122.001 95.8 121.901 92.2 120.901L91.8 107.901C91.5 104.501 94.2 101.701 97.5 101.701Z" fill="#017C8B"/>
<path d="M99.6001 100.901L99.0001 105.101C98.0001 105.601 97.1001 105.501 96.2001 104.701L96.8001 100.501L99.6001 100.901Z" fill="#BE8E69"/>
<path d="M99.6001 101.2L99.5001 102.2C99.1001 102.4 98.6001 102.5 98.0001 102.4H97.9001C97.4001 102.3 97.0001 102.1 96.7001 101.7L96.8001 100.7L99.6001 101.2Z" fill="#BE8E69"/>
<path d="M101.3 97.0004L100.8 100C100.6 101.4 99.3001 102.3 98.0001 102.2C97.6001 102.2 97.2001 102 96.9001 101.6C96.6001 101.2 96.5001 100.8 96.3001 100.4C96.0001 99.6004 95.8001 98.8004 96.0001 98.0004L96.3001 97.1004L100.6 95.9004L101.3 97.0004Z" fill="#BE8E69"/>
<path d="M96.4 98.4004C96.4 98.4004 97.1 96.6003 98.2 96.2003C98.2 96.2003 97.5 95.0004 96.3 96.4004C95.7 97.1004 95.1 98.5004 95.4 98.9004C95.7 99.4004 96.3 99.6004 96.4 98.4004Z" fill="#FFD147"/>
<path d="M101.3 99.7006C101.3 99.7006 101.3 99.8006 101.3 99.7006C101.1 98.7006 100.6 97.9006 99.5001 97.5006C99.3001 97.4006 99.0001 97.4006 98.8001 97.3006C97.1001 97.1006 97.1001 96.2006 97.1001 96.2006L96.7001 94.9006C101.3 93.0006 101.5 96.8006 101.4 98.7006C101.4 99.2006 101.3 99.6006 101.3 99.7006Z" fill="#FFD147"/>
<path d="M96.9 98.601C96.8 99.201 96.3 99.501 95.8 99.501C95.2 99.401 94.9 98.901 94.9 98.401C95 97.801 95.5 97.501 96 97.501C96.6 97.601 97 98.101 96.9 98.601Z" fill="#BE8E69"/>
<path d="M112.7 111.801L111.4 112.701L112.5 114.001L113.7 112.901C114 112.601 114.1 112.201 113.8 111.901C113.5 111.601 113 111.601 112.7 111.801Z" fill="#BE8E69"/>
<path d="M111.5 112.501L112.7 114.001C112 114.601 111.4 115.201 110.6 115.801C109.9 116.401 109.2 117.001 108.4 117.501C108 117.801 107.6 118.001 107.1 118.301C106.9 118.401 106.6 118.501 106.4 118.601C106.1 118.701 105.9 118.801 105.6 118.901C105 119.001 104.4 119.101 103.7 119.001C103.1 118.901 102.4 118.701 101.9 118.501C101.3 118.201 100.9 117.901 100.4 117.601C100 117.301 99.6 117.001 99.2 116.601C98.5 115.901 97.8001 115.201 97.1001 114.601C95.8001 113.201 94.7 111.801 93.5 110.401C93.5 110.401 93.5001 110.401 93.4001 110.301C92.8001 109.501 93.2 108.101 94.4 107.301C95.6 106.401 97.0001 106.501 97.6001 107.401C98.5001 108.901 99.5 110.401 100.4 111.801C100.9 112.501 101.4 113.201 101.9 113.801C102.4 114.401 102.9 114.901 103.4 115.301C103.6 115.501 103.9 115.601 104.1 115.701C104.3 115.801 104.6 115.801 104.9 115.801C105 115.801 105.2 115.801 105.4 115.701C105.6 115.701 105.7 115.601 105.9 115.601C106.3 115.501 106.6 115.301 107 115.201C107.7 114.901 108.5 114.401 109.2 114.001C110 113.501 110.7 113.001 111.5 112.501Z" fill="#017C8B"/>
<path d="M218.2 59.5003C218 59.1003 216.5 58.6003 214.8 58.3003C214.6 56.8003 214.3 55.3003 213.7 53.9003C215 53.0003 216.3 52.0003 216.3 51.2003C216.3 49.6003 213.4 46.5003 212.8 46.3003C212.4 46.2003 210.9 46.9003 209.4 47.9003C208.3 47.0003 207 46.2003 205.6 45.6003C205.9 44.1003 206.1 42.4003 205.5 41.9003C204.4 40.8003 200.1 40.7003 199.6 41.0003C199.2 41.2003 198.7 42.7003 198.4 44.4003C196.8 44.5003 195.3 44.9003 193.9 45.4003C193.1 44.2003 192.1 43.0003 191.3 43.0003C189.7 43.0003 186.6 45.9003 186.4 46.5003C186.3 46.9003 186.9 48.2003 187.8 49.6003C186.7 50.8003 185.9 52.1003 185.2 53.6003C183.8 53.4003 182.4 53.3003 181.9 53.8003C180.8 54.9003 180.7 59.2003 181 59.7003C181.2 60.0003 182.4 60.5003 183.9 60.8003C184 62.5003 184.4 64.1003 185 65.7003C183.9 66.5003 183 67.3003 183 68.0003C183 69.6003 185.9 72.7003 186.5 72.9003C186.8 73.0003 188 72.5003 189.3 71.7003C190.6 72.8003 192 73.7003 193.6 74.3003C193.4 75.6003 193.3 76.9003 193.8 77.3003C194.9 78.4003 199.2 78.5003 199.7 78.2003C200 78.0003 200.5 76.8003 200.8 75.3003C202.5 75.1003 204.1 74.7003 205.6 74.1003C206.4 75.2003 207.3 76.3003 208 76.3003C209.6 76.3003 212.7 73.4003 212.9 72.8003C213 72.4003 212.4 71.1003 211.5 69.7003C212.5 68.5003 213.3 67.1003 213.9 65.6003C215.4 65.9003 216.9 66.0003 217.4 65.5003C218.4 64.3003 218.6 60.1003 218.2 59.5003ZM198.3 66.7003C194.5 66.1003 191.9 62.6003 192.5 58.8003C193.1 55.0003 196.6 52.4003 200.4 53.0003C204.2 53.6003 206.8 57.1003 206.2 60.9003C205.6 64.7003 202.1 67.3003 198.3 66.7003Z" fill="#FF7C44"/>
<path d="M197.9 69.5001C192.5 68.7001 188.8 63.6001 189.7 58.2001C190.5 52.8001 195.6 49.1001 201 50.0001C206.4 50.8001 210.1 55.9002 209.2 61.3002C208.3 66.6002 203.3 70.3001 197.9 69.5001ZM200.9 50.1001C195.6 49.3001 190.6 52.9001 189.8 58.2001C189 63.5001 192.6 68.5002 197.9 69.3002C203.2 70.1002 208.2 66.5001 209 61.2001C209.9 55.9001 206.2 50.9001 200.9 50.1001Z" fill="white"/>
<path d="M213.7 59.1C213.6 59.1 213.6 59.1 213.5 59C213.6 60 213.5 61 213.4 62.1C212.2 69.8 204.9 75.1 197.2 73.9C192.1 73.1 188.1 69.7 186.3 65.3C186.2 65.3 186.2 65.3 186.1 65.3C187.9 69.8 192 73.3 197.2 74.1C205 75.3 212.4 70 213.6 62.1C213.7 61.1 213.8 60.1 213.7 59.1Z" fill="white"/>
<path d="M192.6 47.5002C195.3 46.0002 198.4 45.4002 201.6 45.9002C201.7 45.9002 201.7 45.9002 201.8 45.9002C201.8 45.8002 201.8 45.8002 201.8 45.7002H201.7C198.4 45.2002 195.3 45.8002 192.6 47.3002C192.5 47.4002 192.5 47.4002 192.6 47.5002Z" fill="white"/>
</svg>
