<svg width="319" height="194" viewBox="0 0 319 194" fill="none" xmlns="http://www.w3.org/2000/svg">
<path d="M267 124.4C267 124.4 289.4 100.6 311.6 106.4C318.5 133.2 289.8 145.4 289.8 145.4L261.2 145.6L267 124.4Z" fill="#5C81A2"/>
<path d="M300.8 138.8L277.3 133.5L298.3 117.2L312.2 119.8L312.3 119.1L299.1 116.6L312.1 106.5L311.4 106.1L287.5 124.7L286.3 109.8L285.6 110.4L286.8 125.2L260.3 145.8L260.8 146.4L276.6 134.1L300 139.3L300.8 138.8Z" fill="white"/>
<path d="M270.6 142.1C270.6 142.1 297.4 136.7 307.2 152.1C291 185.9 247.5 167.1 247.5 167.1L270.6 142.1Z" fill="#63C0C4"/>
<path d="M285 171.4L270.3 157L307.2 152.5V151.8L284.7 154.5L294.2 142.6L293.3 142.5L283.7 154.7L253.3 158.4L253.4 159.1L269.4 157.1L284 171.5L285 171.4Z" fill="white"/>
<path d="M253.7 125.1C253.7 125.1 259.2 92.8002 282.7 87.7002C305.5 122.2 270.3 142.7 270.3 142.7L253.7 125.1Z" fill="#FFBEA2"/>
<path d="M290.6 115.3V114.5L268.2 124.3L279.9 87.2L279.2 87L270.9 113.3L262 102.1L261.8 103.1L270.6 114.1L263.9 135.5L264.4 136.2L267.9 125.2L290.6 115.3Z" fill="white"/>
<path d="M54.3 124.499C54.3 124.499 50.6 92.8992 28.1 86.6992C4.2 118.999 44.2 144.299 44.2 144.299L54.3 124.499Z" fill="#E7F2FB"/>
<path d="M19.1 114.7V113.9L41.4 122L27.8 86.7996L28.4 86.5996L38.1 111.5L46 100.2L46.3 101.1L38.4 112.3L46.2 132.6L45.7 133.3L41.7 122.9L19.1 114.7Z" fill="white"/>
<path d="M45.3 120C45.3 120 25.5 91.7996 2.19999 94.7996C-7.60001 119.8 18.6 135 18.6 135L46.1 138.6L45.3 120Z" fill="#5C81A2"/>
<path d="M8.7 127.2L32 125L13.7 106.7L0 107.6V106.9L13 106L1.7 94.7L2.4 94.5L23.2 115.2L26.1 101L26.7 101.7L23.8 115.8L46.9 138.8L46.4 139.3L32.6 125.6L9.5 127.8L8.7 127.2Z" fill="white"/>
<path d="M39.2 132.099C39.2 132.099 14.1 123.699 2.69995 137.399C14.3 171.799 58.9 159.599 58.9 159.599L39.2 132.099Z" fill="#FF7C44"/>
<path d="M21.8 158.599L37.6 146.499L2.59998 137.699L2.79997 137.099L24 142.399L16.3 129.699L17.2 129.799L25 142.599L53.8 149.799L53.7 150.499L38.5 146.699L22.7 158.799L21.8 158.599Z" fill="white"/>
<path fill-rule="evenodd" clip-rule="evenodd" d="M104 185.899C121.3 185.899 135.3 187.499 135.3 189.599C135.3 191.599 121.3 193.299 104 193.299C86.7 193.299 72.7 191.699 72.7 189.599C72.7 187.499 86.7 185.899 104 185.899Z" fill="#E7F2FB"/>
<path d="M271.3 40.2998H41.6V170.4H271.3V40.2998Z" fill="#658197"/>
<path d="M264.1 47.5996H48.9V163.2H264.1V47.5996Z" fill="#FFBEA2"/>
<path fill-rule="evenodd" clip-rule="evenodd" d="M24.8 170.399C25.4 172.699 30.6 176.799 34.7 176.799H156.5H278.3C282.4 176.799 287.6 172.699 288.2 170.399H284.3H156.5H28.6H24.8Z" fill="#0F3A5D"/>
<path fill-rule="evenodd" clip-rule="evenodd" d="M155.2 36.5996L250.8 50.2996L234.7 163.2H137.1L155.2 36.5996Z" fill="white" stroke="#E7F2FB" stroke-width="0.5" stroke-miterlimit="2.6131"/>
<path d="M169.473 75.0606L169.064 77.9316L237.869 87.7311L238.278 84.8601L169.473 75.0606Z" fill="#5C81A2"/>
<path d="M156.551 80.1681L156.142 83.0391L236.926 94.5447L237.335 91.6737L156.551 80.1681Z" fill="#5C81A2"/>
<path d="M155.591 87.0685L155.182 89.9395L235.966 101.445L236.375 98.5741L155.591 87.0685Z" fill="#5C81A2"/>
<path d="M154.573 93.9981L154.164 96.8691L221.187 106.415L221.596 103.544L154.573 93.9981Z" fill="#5C81A2"/>
<path d="M153.197 103.951L152.788 106.822L233.572 118.328L233.981 115.457L153.197 103.951Z" fill="#5C81A2"/>
<path d="M152.138 110.838L151.729 113.709L232.513 125.215L232.922 122.344L152.138 110.838Z" fill="#5C81A2"/>
<path d="M151.178 117.738L150.769 120.609L231.553 132.115L231.962 129.244L151.178 117.738Z" fill="#5C81A2"/>
<path d="M150.174 124.569L149.765 127.44L216.788 136.986L217.197 134.115L150.174 124.569Z" fill="#5C81A2"/>
<path d="M156.7 161.099C157.4 158.599 158.2 156.099 158.8 153.599C157.5 153.699 156.4 153.799 155.4 153.899C156 154.399 156.3 155.299 156.5 156.299C156.8 157.899 156.7 159.699 156.7 160.499C156.7 160.699 156.6 161.199 156.5 161.799L156.7 161.099ZM158.4 148.999C158.8 147.799 159.2 146.599 159.6 145.599C160.2 143.899 160.8 142.299 161.4 140.299C161.5 139.999 161.5 139.899 161.5 139.799C162 138.699 162.2 138.599 162.2 139.299C162.3 139.399 162.3 139.499 162.2 139.899C162.2 139.999 162.2 140.199 162.1 140.399C162.1 140.699 162 141.199 161.9 141.799C161.4 144.599 160.5 149.499 160.5 149.499C160.2 150.599 160 151.699 159.7 152.799C163.4 152.399 167.5 151.899 168.5 151.799C170.8 151.499 171.8 151.599 171.8 152.099C171.9 152.999 167 154.899 165.5 155.499C165.2 155.599 165.1 155.699 165.1 155.699L164.8 155.099C164.8 155.099 165 154.999 165.3 154.899C166.8 154.299 171.3 152.499 171.2 152.199C171.2 152.099 170.5 152.199 168.6 152.499C167.6 152.599 163.3 153.199 159.6 153.599C158.9 156.199 158.2 158.799 157.4 161.399C157.2 161.999 157 162.699 156.9 163.299H155.8C156 162.099 156.1 160.899 156.2 160.499C156.2 159.699 156.3 157.999 156 156.499C155.7 155.099 155.2 153.999 154 154.199V154.099C153.8 154.099 153.7 154.099 153.7 153.999L153.6 153.699L153.9 153.599C154.4 153.499 154.8 153.599 155.2 153.699C156.1 153.499 157.5 153.199 159.2 152.999C159.5 151.799 159.8 150.599 160.1 149.499C160.1 149.499 160.6 146.699 161.1 144.099C160.9 144.699 160.7 145.299 160.4 145.899C160 146.999 159.6 148.099 159.2 149.299L158.4 148.999Z" fill="#1E1978"/>
<path d="M170 148.499C170.2 148.099 170.4 147.699 170.6 147.099C170.7 146.699 170.9 146.199 170.9 145.699C170.9 145.599 170.9 145.499 170.9 145.399C170.8 146.199 170.4 147.199 170 148.499ZM167.3 149.699C167.3 149.599 167.3 149.599 167.3 149.699V149.699ZM162.5 151.599C162.5 151.599 162.6 151.499 162.6 151.399C162.7 151.199 162.9 150.899 162.9 150.599C162.9 150.799 162.7 151.199 162.5 151.599ZM160 151.899C160.2 151.399 160.6 150.799 160.8 150.499C160.9 150.399 161.1 150.299 161.2 150.299C161.4 150.299 161.6 150.399 161.6 150.599C161.8 150.299 162.1 150.099 162.4 150.199C162.7 149.799 162.9 149.499 163.3 149.599H163.4C163.5 149.599 163.6 149.699 163.6 149.799C163.9 149.499 164.1 149.299 164.3 149.299C164.6 149.299 164.7 149.399 164.7 149.699C164.7 149.799 164.7 149.799 164.7 149.899C164.9 149.799 165.2 149.699 165.5 149.599C165.8 149.499 166 149.499 166.2 149.499C166.5 149.399 166.8 149.299 167 149.199C167.5 149.099 167.7 149.199 167.8 149.499C167.8 149.799 167.6 150.099 167.4 150.399C167.3 150.599 167.1 150.699 167.1 150.899C167.4 150.899 167.9 150.699 168.5 150.199C168.6 150.099 168.8 149.999 168.9 149.799C169.5 147.599 170 145.999 170.4 144.999C170.6 144.499 170.8 144.099 170.9 143.899C171.3 143.299 171.6 143.299 171.7 144.099C171.7 144.399 171.7 144.899 171.5 145.699C171.4 146.199 171.3 146.699 171.1 147.199C170.7 148.499 170.1 149.499 169.4 150.099C168.8 152.199 168.2 154.899 167.6 157.999L167 157.899C167.6 155.199 168.1 152.799 168.6 150.899C167.8 151.399 167.1 151.599 166.9 151.499H166.8C166.4 151.299 166.4 150.999 166.6 150.699C166.7 150.499 166.9 150.299 167 150.099C167 149.999 167.1 149.999 167.1 149.999C166.3 150.199 165.4 150.899 165.1 151.199C164.9 151.399 164.8 151.499 164.5 151.399C164.4 151.699 164.3 151.899 164 151.699C163.7 151.499 163.8 151.199 164 150.699C164 150.599 164.1 150.499 164.1 150.399C163.8 150.699 163.5 151.299 163.2 151.799C163.1 151.999 163 152.099 163 152.199L162.4 151.899V151.999L161.8 151.799L161.9 151.599C161.7 151.899 161.6 152.199 161.5 152.399L160.9 152.199C160.9 151.999 161 151.899 161 151.799C160.9 151.999 160.8 152.199 160.7 152.399L160 151.899Z" fill="#1E1978"/>
<path d="M214.9 146.2C218.8 146.8 222 148.8 224.2 151.7C226.4 154.6 227.4 158.3 226.9 162.2C226.9 162.5 226.8 162.8 226.7 163.2H226.1C226.2 162.9 226.2 162.5 226.3 162.2C226.8 158.5 225.8 154.9 223.7 152.2C221.6 149.4 218.5 147.4 214.8 146.9C211.1 146.4 207.5 147.4 204.8 149.5C202 151.6 200 154.7 199.5 158.4C199.3 160.1 199.3 161.7 199.7 163.3H199.1C198.8 161.7 198.7 160 198.9 158.4C199.5 154.5 201.5 151.3 204.4 149.1C207.3 146.7 211.1 145.6 214.9 146.2Z" fill="#FFBEA2"/>
<path fill-rule="evenodd" clip-rule="evenodd" d="M214.8 147.2C222 148.2 227 154.9 226 162.1C225.9 162.5 225.9 162.8 225.8 163.2H223.8C223.9 162.8 224 162.3 224.1 161.8C225 155.7 220.7 150 214.6 149.1C208.5 148.2 202.8 152.5 201.9 158.6C201.7 160.2 201.8 161.7 202.2 163.1H200.2C199.8 161.6 199.8 159.9 200 158.3C200.9 151.1 207.6 146.1 214.8 147.2Z" fill="#FF7C44"/>
<path d="M214.5 149.5C217.5 149.9 220 151.5 221.6 153.7C223.3 155.9 224.1 158.8 223.7 161.7C223.6 162.2 223.5 162.7 223.4 163.1H222.8C222.9 162.6 223.1 162.1 223.1 161.6C223.5 158.8 222.7 156.1 221.2 154C219.7 151.9 217.3 150.4 214.5 150C211.7 149.6 209 150.4 206.9 151.9C204.8 153.5 203.3 155.8 202.9 158.6C202.7 160.1 202.8 161.6 203.2 163H202.6C202.2 161.6 202.1 160.1 202.3 158.5C202.7 155.5 204.3 153 206.5 151.4C208.6 149.9 211.5 149 214.5 149.5Z" fill="#FFBEA2"/>
<path fill-rule="evenodd" clip-rule="evenodd" d="M208.2 159.4L210.3 162.2C210.4 162.3 210.4 162.3 210.5 162.3C210.6 162.3 210.7 162.3 210.8 162.2C213.5 159.8 216.2 157.6 219.8 155.8C219.9 155.8 220 155.8 220.1 155.9C220.2 156 220.1 156.1 220 156.2C217.4 158.1 214.9 160.7 212.5 163.1H208.3L206.2 160.8C206.2 160.8 206.1 160.7 206.1 160.6C206.1 160.5 206.1 160.5 206.2 160.5L207.8 159.3C207.8 159.3 207.9 159.2 208 159.3C208.2 159.3 208.2 159.3 208.2 159.4Z" fill="#FF7C44"/>
<path d="M170.609 54.6534L170.2 57.5244L230.392 66.0972L230.801 63.2262L170.609 54.6534Z" fill="#5C81A2"/>
<path d="M159.452 60.1017L159.043 62.9727L239.827 74.4783L240.236 71.6073L159.452 60.1017Z" fill="#5C81A2"/>
<path fill-rule="evenodd" clip-rule="evenodd" d="M46.3 49.7002L138.7 21.7002L177.6 150.3L135 163.2H80.6L46.3 49.7002Z" fill="white" stroke="#E7F2FB" stroke-width="0.5" stroke-miterlimit="2.6131"/>
<path d="M141.984 58.3076L75.4582 78.4209L76.2974 81.1968L142.823 61.0835L141.984 58.3076Z" fill="#5C81A2"/>
<path d="M144.023 64.9484L65.9155 88.5635L66.7547 91.3394L144.862 67.7243L144.023 64.9484Z" fill="#5C81A2"/>
<path d="M146.038 71.6486L67.9304 95.2637L68.7696 98.0396L146.877 74.4245L146.038 71.6486Z" fill="#5C81A2"/>
<path d="M134.72 82.2699L69.9178 101.862L70.757 104.638L135.559 85.0458L134.72 82.2699Z" fill="#5C81A2"/>
<path d="M150.931 87.9611L72.8231 111.576L73.6623 114.352L151.77 90.737L150.931 87.9611Z" fill="#5C81A2"/>
<path d="M152.917 94.5666L74.809 118.182L75.6483 120.958L153.756 97.3425L152.917 94.5666Z" fill="#5C81A2"/>
<path d="M154.931 101.268L76.8239 124.883L77.6632 127.659L155.771 104.044L154.931 101.268Z" fill="#5C81A2"/>
<path d="M143.614 111.889L78.8112 131.481L79.6505 134.257L144.453 114.665L143.614 111.889Z" fill="#5C81A2"/>
<path fill-rule="evenodd" clip-rule="evenodd" d="M147.5 126.6C153.4 124.8 159.7 128.2 161.5 134.1C163.3 140 159.9 146.3 154 148.1C148.1 149.9 141.8 146.5 140 140.6C138.2 134.7 141.6 128.4 147.5 126.6ZM146.9 124.8C153.9 122.7 161.2 126.6 163.3 133.6C165.4 140.6 161.5 147.9 154.5 150C147.5 152.1 140.2 148.2 138.1 141.2C136 134.2 140 126.9 146.9 124.8Z" fill="#D8F3F5"/>
<path d="M157.2 125.399C154.1 123.799 150.5 123.299 146.9 124.399C143.3 125.499 140.5 127.899 138.9 130.999C137.3 134.099 136.8 137.699 137.9 141.299C139 144.899 141.4 147.699 144.5 149.299C147.6 150.899 151.2 151.399 154.8 150.299C158.4 149.199 161.2 146.799 162.8 143.699C164.4 140.599 164.9 136.999 163.8 133.399C162.6 129.899 160.2 127.099 157.2 125.399ZM146.7 123.799C150.4 122.699 154.3 123.199 157.5 124.899C160.7 126.599 163.2 129.499 164.4 133.299C165.5 136.999 165 140.899 163.3 144.099C161.6 147.299 158.7 149.799 154.9 150.999C151.2 152.099 147.3 151.599 144.1 149.899C140.9 148.199 138.4 145.299 137.2 141.499C136.1 137.799 136.6 133.899 138.3 130.699C140 127.499 142.9 124.999 146.7 123.799Z" fill="#D8F3F5"/>
<path d="M155.6 128.3C153.3 127.1 150.5 126.7 147.8 127.5C145.1 128.3 143 130.2 141.7 132.5C140.5 134.8 140.1 137.6 140.9 140.3C141.7 143 143.6 145.1 145.9 146.4C148.2 147.6 151 148 153.7 147.2C156.4 146.4 158.5 144.5 159.8 142.2C161 139.9 161.4 137.1 160.6 134.4C159.7 131.7 157.9 129.6 155.6 128.3ZM147.6 127C150.5 126.1 153.4 126.5 155.9 127.8C158.3 129.1 160.3 131.4 161.2 134.2C162.1 137.1 161.7 140 160.4 142.5C159.1 144.9 156.8 146.9 154 147.8C151.1 148.7 148.2 148.3 145.7 147C143.3 145.7 141.3 143.4 140.4 140.6C139.5 137.7 139.9 134.8 141.2 132.3C142.5 129.8 144.8 127.9 147.6 127Z" fill="#D8F3F5"/>
<path fill-rule="evenodd" clip-rule="evenodd" d="M146.1 138.6L149.2 140.3C149.3 140.3 149.4 140.4 149.5 140.3C149.6 140.3 149.7 140.2 149.7 140.1C151.2 136.8 152.7 133.6 155.1 130.5C155.2 130.4 155.3 130.4 155.4 130.5C155.5 130.6 155.5 130.7 155.5 130.8C153.5 134.4 152.1 139 150.7 142.8C150.6 143 150.4 143.1 150.3 143L145 140.8C144.9 140.8 144.9 140.7 144.9 140.7C144.9 140.6 144.9 140.6 144.9 140.5L145.9 138.7C145.9 138.6 146 138.6 146 138.6C146 138.5 146.1 138.6 146.1 138.6Z" fill="#FFA384"/>
<path d="M126.08 41.8859L67.8826 59.4814L68.7219 62.2573L126.92 44.6618L126.08 41.8859Z" fill="#5C81A2"/>
<path d="M138.117 45.4523L60.0094 69.0674L60.8487 71.8433L138.956 48.2282L138.117 45.4523Z" fill="#5C81A2"/>
<path opacity="0.14" fill-rule="evenodd" clip-rule="evenodd" d="M106.9 38.4996L198.3 33.0996V163.2H101.7L106.9 38.4996Z" fill="#211363"/>
<path opacity="0.14" fill-rule="evenodd" clip-rule="evenodd" d="M179 40L210.7 44.6V163.2H159.3L179 40Z" fill="#201163"/>
<path d="M203.5 33.0996H106.9V163.1H203.5V33.0996Z" fill="white" stroke="#E7F2FB" stroke-width="0.5" stroke-miterlimit="2.6131"/>
<path d="M196 69.0996H126.5V71.9996H196V69.0996Z" fill="#5C81A2"/>
<path d="M196 76H114.4V78.9H196V76Z" fill="#5C81A2"/>
<path d="M196 83H114.4V85.9H196V83Z" fill="#5C81A2"/>
<path d="M182.1 89.8994H114.4V92.7994H182.1V89.8994Z" fill="#5C81A2"/>
<path d="M196 100H114.4V102.9H196V100Z" fill="#5C81A2"/>
<path d="M196 107H114.4V109.9H196V107Z" fill="#5C81A2"/>
<path d="M196 113.899H114.4V116.799H196V113.899Z" fill="#5C81A2"/>
<path d="M182.1 120.899H114.4V123.799H182.1V120.899Z" fill="#5C81A2"/>
<path d="M126 156.1C126.4 153.5 126.7 150.9 127 148.3C125.8 148.6 124.6 148.9 123.7 149.1C124.3 149.5 124.8 150.4 125.1 151.3C125.6 152.8 125.8 154.7 125.9 155.4C125.9 155.6 125.9 156.1 125.9 156.7L126 156.1ZM125.9 143.8C126.1 142.5 126.4 141.4 126.6 140.2C127 138.5 127.4 136.8 127.6 134.7C127.6 134.4 127.7 134.3 127.7 134.2C128 133 128.2 132.9 128.3 133.6C128.4 133.7 128.4 133.8 128.3 134.2C128.3 134.3 128.3 134.5 128.3 134.7C128.3 135 128.3 135.5 128.3 136.2C128.2 139 128 144 128 144.1C127.9 145.2 127.8 146.3 127.6 147.5C131.2 146.6 135.2 145.5 136.1 145.2C138.4 144.5 139.3 144.6 139.4 145C139.7 145.9 135.1 148.5 133.6 149.3C133.4 149.4 133.2 149.5 133.2 149.5L133 149C133 149 133.2 148.9 133.5 148.7C134.9 147.9 139.1 145.5 139 145.2C139 145.1 138.3 145.3 136.5 145.8C135.6 146.1 131.3 147.2 127.7 148.1C127.4 150.7 127 153.5 126.6 156.1C126.4 157.8 126.1 159.5 125.9 161C125.9 161.3 125.7 161.4 125.5 161.4C125.4 161.4 125.3 161.2 125.3 161V160.9C125.2 160.3 125.2 159.4 125.2 158.5C125.2 157.2 125.2 155.9 125.2 155.5C125.1 154.7 125 153 124.5 151.5C124 150.2 123.3 149.1 122.2 149.5V149.4C122 149.4 121.9 149.4 121.8 149.3L121.7 149L122 148.9C122.5 148.7 122.9 148.7 123.3 148.9C124.2 148.6 125.5 148.1 127.2 147.7C127.3 146.5 127.5 145.3 127.6 144.1C127.6 144.1 127.7 141.2 127.8 138.6C127.7 139.2 127.5 139.8 127.4 140.5C127.2 141.6 126.9 142.8 126.7 144.1L125.9 143.8Z" fill="#1E1978"/>
<path d="M137.4 141.7C137.6 141.3 137.7 140.8 137.8 140.3C137.9 139.9 137.9 139.4 137.9 138.9C137.9 138.8 137.9 138.7 137.9 138.6C137.7 139.3 137.6 140.4 137.4 141.7ZM134.9 143.3C134.8 143.2 134.8 143.3 134.9 143.3V143.3ZM130.3 145.8C130.3 145.8 130.4 145.7 130.4 145.5C130.5 145.2 130.6 144.9 130.6 144.7C130.6 145 130.5 145.4 130.3 145.8ZM127.9 146.5C128 146 128.3 145.3 128.5 145C128.6 144.8 128.7 144.7 128.9 144.7C129.1 144.6 129.3 144.7 129.4 144.9C129.6 144.6 129.9 144.4 130.1 144.4C130.3 144 130.5 143.7 130.9 143.7H131C131.1 143.7 131.2 143.8 131.2 143.9C131.4 143.6 131.6 143.4 131.8 143.3C132.1 143.2 132.2 143.4 132.3 143.7C132.3 143.8 132.3 143.8 132.3 143.9C132.5 143.7 132.8 143.6 133.1 143.5C133.4 143.4 133.6 143.3 133.8 143.3C134 143.1 134.3 143 134.6 142.9C135.1 142.7 135.3 142.8 135.4 143.1C135.5 143.4 135.3 143.7 135.1 144C135 144.2 134.9 144.4 134.8 144.5C135.1 144.4 135.5 144.2 136.1 143.6C136.2 143.5 136.3 143.3 136.4 143.2C136.7 140.9 136.9 139.3 137.2 138.2C137.3 137.6 137.4 137.3 137.6 137.1C137.9 136.4 138.2 136.4 138.4 137.2C138.5 137.5 138.5 138 138.5 138.9C138.5 139.5 138.4 140 138.3 140.4C138.1 141.8 137.6 142.8 137 143.5C136.7 145.7 136.5 148.4 136.3 151.6H135.7C135.9 148.8 136.1 146.4 136.3 144.4C135.6 145 135 145.3 134.7 145.2H134.6C134.2 145.1 134.1 144.8 134.3 144.4C134.4 144.2 134.5 143.9 134.6 143.7C134.6 143.6 134.7 143.6 134.7 143.5C133.9 143.8 133.2 144.7 132.8 145C132.6 145.2 132.5 145.3 132.3 145.2C132.2 145.5 132.2 145.7 131.8 145.6C131.5 145.5 131.6 145.1 131.7 144.6C131.7 144.5 131.7 144.4 131.8 144.3C131.6 144.7 131.3 145.3 131.1 145.8C131 146 131 146.2 130.9 146.3L130.3 146.1V146.2L129.7 146.1V145.9C129.6 146.2 129.5 146.5 129.4 146.8L128.8 146.7C128.8 146.5 128.8 146.4 128.8 146.3C128.7 146.5 128.6 146.7 128.6 147L127.9 146.5Z" fill="#1E1978"/>
<path d="M195.337 148.758C196.166 141.126 190.65 134.268 183.018 133.439C175.386 132.611 168.527 138.127 167.699 145.759C166.87 153.391 172.386 160.25 180.018 161.078C187.65 161.906 194.509 156.391 195.337 148.758Z" stroke="#FFBEA2" stroke-width="0.2899" stroke-miterlimit="2.6131"/>
<path fill-rule="evenodd" clip-rule="evenodd" d="M181.5 136C187.7 136 192.7 141 192.7 147.2C192.7 153.4 187.7 158.4 181.5 158.4C175.3 158.4 170.3 153.4 170.3 147.2C170.3 141.1 175.3 136 181.5 136ZM181.5 134.1C188.8 134.1 194.7 140 194.7 147.3C194.7 154.6 188.8 160.5 181.5 160.5C174.2 160.5 168.3 154.6 168.3 147.3C168.3 140 174.2 134.1 181.5 134.1Z" fill="#FF7C44"/>
<path d="M191.946 148.408C192.573 142.644 188.409 137.462 182.644 136.834C176.879 136.207 171.697 140.371 171.07 146.136C170.442 151.901 174.607 157.083 180.372 157.71C186.136 158.338 191.318 154.173 191.946 148.408Z" stroke="#FFBEA2" stroke-width="0.2899" stroke-miterlimit="2.6131"/>
<path fill-rule="evenodd" clip-rule="evenodd" d="M176.7 147.1L179.2 149.6C179.3 149.7 179.4 149.7 179.5 149.7C179.6 149.7 179.7 149.7 179.7 149.6C182.1 146.9 184.4 144.3 187.7 142C187.8 141.9 187.9 142 188 142C188.1 142.1 188.1 142.2 188 142.3C185.1 145.1 182.4 149.2 179.9 152.4C179.8 152.5 179.6 152.6 179.4 152.5L175 148.9L174.9 148.8C174.9 148.7 174.9 148.7 175 148.6L176.5 147.1L176.6 147L176.7 147.1Z" fill="#FF7C44"/>
<path d="M185.5 48.7002H124.7V51.6002H185.5V48.7002Z" fill="#5C81A2"/>
<path d="M196 55.7002H114.4V58.6002H196V55.7002Z" fill="#5C81A2"/>
<path fill-rule="evenodd" clip-rule="evenodd" d="M82.3 105C82.3 105.4 82.2 105.9 82 106.4L80.2 106C80.8 105.2 81.2 104.7 81.2 104.5C79.8 102.4 80.9 101.5 81.4 103.2C81.3 101.9 82.6 100.7 83.2 100.7C83.7 100.7 84.1 101.7 82.3 105Z" fill="#E4AB8D"/>
<path fill-rule="evenodd" clip-rule="evenodd" d="M75.2 112.1C73.6 109.9 69.8 105.7 69.9 105.8C70.1 106.4 69.6 107.6 70.1 112.6C70.2 112.8 72.7 115.4 73 115.6C74.4 114.3 74.7 113 75.2 112.1Z" fill="#FF8855"/>
<path fill-rule="evenodd" clip-rule="evenodd" d="M73.7 160.7L74.1 164.2C74.1 164.7 74.1 166.1 74.1 167.9C73.3 168.6 72 168.4 71.9 167.8C71.7 167.2 71.3 161.6 71.3 161.6L73.7 160.7Z" fill="#E4AB8D"/>
<path fill-rule="evenodd" clip-rule="evenodd" d="M71.2 169.3C71.7 169.4 73.5 169.4 73.7 169.5C73.9 169.5 74.2 169.8 74.3 169.8C74.9 169.8 75.6 169.6 75.8 169.5C76 169.5 79 169.4 79 169.4C79 169.3 79 169 78.7 168.9C78.6 168.8 78 168.6 77.2 168.4C76.5 168.1 75.7 167.8 75.4 167.6C75.2 167.5 75.1 167.3 74.9 167.2C74.8 167.1 74.1 166.5 74 166.5C73.9 166.5 73.3 166.9 73.3 167C73.3 167.1 73.4 167.3 73.5 167.4C73.3 167.5 73.2 167.5 73 167.4C72.4 167.3 72.4 166.6 72.1 166.6C71.8 166.5 71.2 167.3 71.2 169.3Z" fill="url(#paint0_linear_3468_20250)"/>
<path fill-rule="evenodd" clip-rule="evenodd" d="M61.4 160.7L62.2 163.3C62.2 163.8 61.9 166.2 61.9 168C61.1 168.7 59.8 168.5 59.7 167.9C59.5 167.3 59.4 161.8 59.4 161.8L61.4 160.7Z" fill="#E4AB8D"/>
<path fill-rule="evenodd" clip-rule="evenodd" d="M71.2 169.3C71.2 169.4 71.1 169.7 71.1 169.8C71.1 169.9 72.4 170.2 74.6 170.1C76.8 170 78.7 170 79 169.3C78.9 169.4 76 169.4 75.8 169.4C75.6 169.4 74.8 169.7 74.3 169.7C74.2 169.7 73.8 169.4 73.7 169.4C73.5 169.4 71.7 169.3 71.2 169.3Z" fill="white"/>
<path fill-rule="evenodd" clip-rule="evenodd" d="M63.8 170.099C62 170.099 58.9 170.099 58.9 170.099C58.8 169.799 58.9 168.699 59 168.299C59.2 167.799 59.4 167.399 59.6 167.399C60.1 167.399 59.8 168.199 60.4 168.199C61.1 168.199 60.8 167.599 61.7 167.599C61.9 167.599 62.7 168.399 63.4 169.099C63.7 169.299 63.8 169.599 63.8 170.099Z" fill="url(#paint1_linear_3468_20250)"/>
<path fill-rule="evenodd" clip-rule="evenodd" d="M63.8 170.1C62 170.1 58.9 170.1 58.9 170.1C58.9 170 58.9 169.7 58.9 169.5L63.7 169.6C63.8 169.7 63.8 169.9 63.8 170.1Z" fill="white"/>
<path fill-rule="evenodd" clip-rule="evenodd" d="M62.3 165C62.8 155.3 64.7 139.3 65 132.1C66.1 135.2 67.8 141 68.4 144.6V144.7C68.4 144.8 68.4 144.9 68.5 145C69.9 150.4 67.9 156.4 68 157C68.1 157.5 68.7 157.1 68.9 158.3C69 159 68.6 160.1 68.6 160.8C68.6 161.2 69.2 160.9 69.2 161.3C69.2 162.8 69.1 164.8 69.2 164.9C69.3 165 69.7 164.8 70 164.9C70.3 165 70.3 165.2 70.6 165.3C71.2 165.4 72.4 164.9 74.2 165.4C74.2 160 74.6 148.5 74.2 144.8C74.1 139.9 71.9 131.3 71.1 126.3C69.7 125.4 68.5 125.8 66.7 125.9C64.9 126 63.4 123.9 60.2 124.8C58.5 125.3 57.5 126.2 56.9 126.8C56.3 133.3 58.3 140.2 57.7 148.1C57.1 156 56 156.9 56.1 157.4C56.2 157.9 56.8 158 56.9 158.4C57.2 159.7 56.4 161.4 56.5 162.3C56.6 163.1 57.2 164 57.5 164.2C57.7 164.4 57.3 164.9 57.7 165.2C58.1 165.1 60.8 165.4 62.3 165Z" fill="#212B53"/>
<path fill-rule="evenodd" clip-rule="evenodd" d="M69.9 105.7C70.4 106 69.7 114.6 71.2 126.3C70.4 126.4 58.5 126.8 57.7 126.4C57.6 123.1 57.7 106.6 58.1 105.7C59.5 104.8 61.8 103.8 62.9 103.8C65.4 103.7 66.9 103.8 69.9 105.7Z" fill="#00666B"/>
<path fill-rule="evenodd" clip-rule="evenodd" d="M72.3 114.9C73.3 116 73.9 116.3 75 116.5C77.8 117.4 81.6 108.6 82.4 106.1L80 105.3C78 109.7 75.9 111.6 72.3 114.9Z" fill="#FF8855"/>
<path fill-rule="evenodd" clip-rule="evenodd" d="M62.8 103.7C63.3 106.3 61.9 123.5 63.5 131.8C63.5 131.8 57.1 131.5 56.3 131.6C56.8 129 57.1 106.6 57.7 105.5C59 104.6 61.1 103.9 62.8 103.7Z" fill="#FF8855"/>
<path fill-rule="evenodd" clip-rule="evenodd" d="M50.6 118.1H63.4L63.8 127.1H50.2L50.6 118.1Z" fill="white"/>
<path fill-rule="evenodd" clip-rule="evenodd" d="M57.4 125.9C53.7 122.4 53.4 116.9 53.5 116C53.8 115.1 56.5 112.7 58 110.8C59.5 108.9 58.7 105.4 58.4 105.3C56.8 105.6 50.9 111.3 49.6 115.8C49.2 118.3 52.3 125.4 55.7 127.4L57.4 125.9Z" fill="#FF8855"/>
<path fill-rule="evenodd" clip-rule="evenodd" d="M56.1 127.1L55.9 127.3C56.3 127.5 57.2 128.1 57.4 128.1C57.6 128.1 59.1 128 59.2 127.1H57.9L56.9 126.3L56.1 127.1Z" fill="#E4AB8D"/>
<path fill-rule="evenodd" clip-rule="evenodd" d="M65.7 104.599C66 106.499 66.8 120.899 67 132.199C69.3 132.099 71.3 131.699 72.1 131.099C71.5 125.999 70.8 107.099 69.9 105.799C68 104.499 66.2 103.899 65.3 103.899L65.7 104.599Z" fill="#FF8855"/>
<path fill-rule="evenodd" clip-rule="evenodd" d="M62.6 102.9C62.7 103.4 62.7 104.1 62.6 104.4V104.5C62.6 104.8 64.2 106.4 64.7 106.4C65.2 106.4 65.8 105.2 65.8 104.8V104.6V103.2C65.1 103.2 64.3 101.3 63.6 101.2C63.2 101.2 62.5 101.8 62.6 102.9Z" fill="#E4AB8D"/>
<path fill-rule="evenodd" clip-rule="evenodd" d="M64.7 102.399C64.4 102.499 64.1 103.199 63.8 102.299C63.7 102.099 62.9 101.799 62.9 101.699C62.8 101.499 62.5 100.399 62.5 100.099C62.5 99.8994 63 99.6994 63.1 99.4994C63.1 99.2994 62.7 98.7994 63.1 98.4994C63.5 98.1994 64.2 98.6994 64.6 98.5994C64.8 98.5994 65 98.2994 65.2 98.0994C65.4 97.9994 65.6 97.8994 65.8 97.9994C67.1 98.2994 66.9 101.799 66.2 103.299C66.1 103.299 66.3 102.499 66.2 102.399C66 102.299 65 102.299 64.7 102.399Z" fill="#E4AB8D"/>
<path fill-rule="evenodd" clip-rule="evenodd" d="M65.6 102.9C65.4 102.9 65.1 102.9 65.1 103C65.1 103.1 65.1 103.2 65.4 103.3C65.7 103.3 66 103.2 66 103.1C65.9 103 65.7 102.9 65.6 102.9ZM62.5 100.2C62.5 100.4 62.8 101.6 62.9 101.8C62.9 101.9 63.7 102.1 63.8 102.4C64.1 103.3 64.4 102.6 64.7 102.5C65 102.4 66 102.5 66.2 102.6C66.3 102.7 66.4 103.2 66.4 103.2C66.3 103.5 65.9 104 65.8 104.1C65.6 104.2 65.3 104.3 64.9 104.4C64.5 104.4 63.9 104.3 63.5 103.9C63.3 103.7 62.8 102.9 62.6 102.3C62.5 102 62.3 100.9 62.3 100.9C62.2 100.8 61.9 100.7 61.7 100.9C61.6 101 61.6 101.8 62.6 102.4C62.6 102.6 62.5 102.8 62.5 103.1C61.7 102.9 61.8 102 61.7 101.7C61.5 101.4 60.8 101.2 60.7 100.7C60.6 100.2 60.8 99.8997 60.8 99.6997C60.8 99.4997 60.4 98.3997 60.4 98.1997C60.4 97.9997 60.8 97.8997 60.9 97.7997C61 97.5997 60.7 97.0997 60.8 96.7997C61 96.4997 61.5 96.6997 61.5 96.6997C61.8 96.5997 62.3 95.7997 63.2 95.6997C64.1 95.5997 64.3 96.1997 64.5 96.1997C64.7 96.1997 65.1 95.8997 65.6 95.8997C66.1 95.9997 66.4 96.1997 66.5 96.4997C66.9 96.4997 67.1 96.6997 67.2 96.9997C67.4 97.4997 67 98.1997 67 98.2997C67 98.4997 67.4 98.6997 67.4 98.9997C67.4 99.2997 66.9 99.5997 66.7 99.8997C66.6 98.9997 66.3 98.2997 65.8 98.1997C65.6 98.1997 65.4 98.1997 65.2 98.2997C64.9 98.4997 64.8 98.7997 64.6 98.7997C64.2 98.8997 63.5 98.3997 63.1 98.6997C62.7 98.9997 63.1 99.4997 63.1 99.6997C63.1 99.6997 62.6 99.8997 62.5 100.2Z" fill="#231F20"/>
<path fill-rule="evenodd" clip-rule="evenodd" d="M62.4 100.799C62.4 100.799 62.6 101.999 62.7 102.199C61.7 101.599 61.7 100.899 61.8 100.699C62 100.599 62.3 100.599 62.4 100.799Z" fill="#E4AB8D"/>
<path fill-rule="evenodd" clip-rule="evenodd" d="M65.1 102.999C65.1 103.099 65.1 103.199 65.4 103.299C65.7 103.299 66 103.199 66 103.099C66 102.999 65.8 102.999 65.6 102.899C65.4 102.899 65.1 102.899 65.1 102.999Z" fill="#E4AB8D"/>
<path fill-rule="evenodd" clip-rule="evenodd" d="M263.5 1.89941C264.6 1.89941 265.4 2.79941 265.4 3.79941C265.4 4.89941 264.5 5.69941 263.5 5.69941C262.4 5.69941 261.6 4.79941 261.6 3.79941C261.6 2.69941 262.4 1.89941 263.5 1.89941Z" fill="white"/>
<path fill-rule="evenodd" clip-rule="evenodd" d="M258.3 11.7998C258.5 11.9998 258.6 12.3998 258.7 12.5998C259.2 12.6998 260.6 12.5998 262 11.1998C261.9 10.9998 261.9 10.7998 261.9 10.4998C261.9 10.4998 261.5 10.0998 261.2 9.6998C261.8 9.1998 262.2 7.7998 261.4 7.4998C260.6 7.1998 260.4 8.0998 260.3 8.9998C259.7 8.5998 259.8 7.1998 258.8 6.7998C258 6.4998 257.6 6.8998 257.1 6.8998C256.7 6.7998 256.5 6.2998 255.9 6.2998C255.5 6.7998 255.5 7.5998 255.5 8.1998C255.5 8.8998 255.7 9.4998 255.8 9.5998C256 9.8998 256.8 11.6998 258.3 11.7998Z" fill="#BE8E69"/>
<path fill-rule="evenodd" clip-rule="evenodd" d="M260.3 9.0001C260.3 8.2001 260.6 7.3001 261.4 7.5001C262.2 7.8001 261.8 9.2001 261.2 9.7001C261.4 10.0001 261.9 10.5001 261.9 10.5001C263.6 8.7001 264.5 5.9001 262.6 4.0001C260.2 1.6001 254.2 3.3001 255.7 8.1001C255.7 7.5001 255.8 6.7001 256.1 6.2001C256.7 6.2001 256.8 6.7001 257.3 6.8001C257.8 6.9001 258.2 6.4001 259 6.7001C259.8 7.2001 259.7 8.6001 260.3 9.0001Z" fill="#231F20"/>
<path fill-rule="evenodd" clip-rule="evenodd" d="M260.5 10.0996C260.4 10.5996 260 11.2996 258.8 11.6996C258.6 11.6996 258.5 11.7996 258.3 11.6996C258.5 11.8996 258.6 12.2996 258.7 12.4996C258.9 12.4996 259.1 12.4996 259.4 12.4996C260.4 11.6996 260.5 10.7996 260.5 10.0996Z" fill="#AA805D"/>
<path fill-rule="evenodd" clip-rule="evenodd" d="M225.8 69.9001C225.9 69.9001 226.3 70.2001 226.6 70.0001C226.9 69.4001 228.4 67.0001 229.1 65.3001C229.4 64.5001 229.2 64.1001 229.3 63.6001C228.9 63.5001 227.8 63.3001 226.6 64.0001C224.7 65.1001 223.2 67.3001 221.7 66.8001C221.1 66.5001 220.9 65.9001 220.9 65.7001C220.4 65.9001 218.4 65.1001 218.3 65.7001C218.3 66.0001 219.3 67.7001 222 68.4001C223.4 68.7001 224.2 66.4001 227.3 66.2001L225.8 69.9001Z" fill="#553E84"/>
<path fill-rule="evenodd" clip-rule="evenodd" d="M220.9 65.6994C221.6 65.5994 225.2 62.7994 226.4 62.5994L227.6 59.8994L229.7 60.9994L230.3 61.2994L229.1 63.4994C228.6 63.3994 227.6 63.3994 226.6 63.9994C224.7 65.0994 223.2 67.2994 221.7 66.7994C221.1 66.4994 220.9 65.9994 220.9 65.6994Z" fill="#BE8E69"/>
<path fill-rule="evenodd" clip-rule="evenodd" d="M256.5 33.6002C256.5 33.6002 241.2 32.7002 238.9 34.9002C237.7 36.0002 229.7 55.7002 227.4 60.0002L231.7 62.5002C232.4 60.9002 236 57.9002 236 57.3002C236 56.8002 235.1 56.9002 235 56.7002C234.9 56.5002 240.1 46.2002 242.5 44.5002C244.8 42.8002 253.7 37.8002 254 37.8002C254.3 37.7002 258.5 36.3002 258.5 36.3002L256.5 33.6002Z" fill="#017C8B"/>
<path fill-rule="evenodd" clip-rule="evenodd" d="M246.3 74.1994C246.4 74.1994 246.9 74.1994 247 73.8994C247 73.1994 247.2 70.3994 247 68.4994C246.9 67.6994 246.5 67.3994 246.4 66.8994C246 66.9994 244.9 67.3994 244.2 68.4994C243.1 70.2994 242.7 72.9994 241.2 73.1994C240.5 73.2994 240.1 72.7994 240 72.5994C239.6 72.9994 237.5 73.1994 237.7 73.7994C237.8 73.9994 239.5 75.0994 242.2 74.4994C243.5 74.0994 243.3 71.6994 245.9 70.0994L246.3 74.1994Z" fill="#553E84"/>
<path fill-rule="evenodd" clip-rule="evenodd" d="M240 72.5994C240.6 72.1994 242.5 68.0994 243.5 67.2994L243.3 64.3994H245.6H246.3V66.8994C245.8 66.9994 244.9 67.4994 244.3 68.4994C243.2 70.2994 242.8 72.9994 241.3 73.1994C240.6 73.2994 240.1 72.8994 240 72.5994C240 72.6994 240 72.6994 240 72.5994Z" fill="#BE8E69"/>
<path fill-rule="evenodd" clip-rule="evenodd" d="M249.4 30.2002C253.2 28.3002 260.7 27.0002 261.9 26.9002C261.9 26.7002 262.1 22.7002 262.7 20.2002C264 14.9002 265.5 13.7002 266.3 13.7002C267.1 13.8002 268.5 15.6002 267 22.3002C266.2 25.6002 265 29.3002 263.6 30.0002C262.2 30.7002 252.2 30.5002 249.8 31.5002C249.2 31.8002 246.8 32.3002 246.7 32.3002C246.3 32.1002 249 30.4002 249.4 30.2002Z" fill="#BE8E69"/>
<path fill-rule="evenodd" clip-rule="evenodd" d="M242.9 64.4994C241 50.9994 241.3 38.9994 242.5 36.9994C245.3 32.3994 264.1 33.4994 266.9 34.0994C267.3 36.6994 265.7 42.3994 261.6 42.7994C257.5 43.2994 250.5 40.6994 249.7 41.3994C248.9 41.9994 247.2 56.6994 247.6 57.6994C247.7 57.7994 247.9 57.7994 248.2 57.9994C248.4 58.1994 247.8 61.3994 247.9 61.6994C248 61.9994 248.6 61.5994 248.8 61.9994C249 62.3994 248.2 63.8994 248.4 64.3994C247.8 64.5994 244.2 64.7994 242.9 64.4994Z" fill="#017C8B"/>
<path fill-rule="evenodd" clip-rule="evenodd" d="M258.7 12.8994C255.4 15.6994 255.4 18.1994 253.9 24.0994C251.7 26.6994 247.1 26.4994 243.9 29.8994L245.2 30.6994C247.7 29.3994 252.7 29.0994 255.6 26.7994C257.8 25.0994 259.3 20.4994 259.9 16.8994L258.7 12.8994Z" fill="#BE8E69"/>
<path fill-rule="evenodd" clip-rule="evenodd" d="M261.9 11.2002C260.4 12.5002 259.1 12.6002 258.6 12.6002C258.6 12.7002 258.7 13.1002 258.7 13.1002C258.8 14.6002 254.1 17.6002 254.2 20.4002C254.5 22.6002 256.3 24.4002 257.5 27.7002C259.6 27.2002 261.3 27.0002 261.8 26.9002C261.8 26.7002 262 22.7002 262.6 20.2002C263.9 14.9002 265.4 13.7002 266.2 13.7002C267 13.8002 268.4 15.6002 266.9 22.3002C266.1 25.6002 264.9 29.3002 263.5 30.0002C262.9 30.3002 260.7 30.4002 258.2 30.6002C258.3 31.5002 258.4 32.5002 258.4 33.6002C262.3 33.6002 265.7 33.9002 266.8 34.2002C266.3 27.7002 268.8 17.6002 267.3 14.7002C266.2 12.1002 262.5 13.1002 261.9 11.2002Z" fill="#63D6C4"/>
<path fill-rule="evenodd" clip-rule="evenodd" d="M255.1 32.8994H250.8V33.6994H255.5V33.2994C255.5 33.0994 255.3 32.8994 255.1 32.8994Z" fill="url(#paint2_linear_3468_20250)"/>
<path fill-rule="evenodd" clip-rule="evenodd" d="M251.3 33.5996L248.3 25.0996H234.7L237.6 33.5996H251.3Z" fill="url(#paint3_linear_3468_20250)"/>
<path fill-rule="evenodd" clip-rule="evenodd" d="M238.3 115.5C238.3 116.7 238.3 125.1 238.5 128.2C238.6 129.2 240.1 131.5 238.2 133.5C237.8 133.8 236.2 133 236.6 128C236.5 124.9 235.4 119.2 236 115.5L237.5 115.2L238.3 115.5Z" fill="#AF815C"/>
<path fill-rule="evenodd" clip-rule="evenodd" d="M224.4 156.1C224.6 160.2 225.1 162.4 225.2 167.2C224.6 167.6 223.2 170 222.8 170.2C222.9 170.3 223.1 170.6 223.5 170.6C224.5 170.6 224.8 169 225.6 167.9C225.8 167.6 226 167.4 226.2 167.3L226.9 167.1C227 162 227.8 158.7 227.5 155.8L224.4 156.1Z" fill="#BE8E69"/>
<path fill-rule="evenodd" clip-rule="evenodd" d="M226.6 171.4C226.6 171.4 227 171.4 227.1 171.3C227.1 170.9 227.4 169.2 227.4 168.1C227.4 167.6 227.2 167.4 227.1 167.1C226.8 167.1 226.2 167.3 225.7 168C224.9 169 224.6 170.6 223.6 170.7C223.2 170.7 222.9 170.4 222.9 170.3C222.6 170.5 221.3 170.5 221.4 170.9C221.4 171.1 222.5 171.8 224.1 171.5C224.9 171.3 224.9 169.9 226.6 169.1V171.4Z" fill="#274364"/>
<path fill-rule="evenodd" clip-rule="evenodd" d="M234.3 156.1C234.5 160.2 235 162.4 235.1 167.2C234.5 167.6 233.1 170 232.7 170.2C232.8 170.3 233 170.6 233.4 170.6C234.4 170.6 234.7 169 235.5 167.9C235.7 167.6 235.9 167.4 236.1 167.3L236.8 167.1C236.9 162 237.7 158.7 237.4 155.8L234.3 156.1Z" fill="#BE8E69"/>
<path fill-rule="evenodd" clip-rule="evenodd" d="M236.5 171.4C236.5 171.4 236.9 171.4 237 171.3C237 170.9 237.3 169.2 237.3 168.1C237.3 167.6 237.1 167.4 237 167.1C236.7 167.1 236.1 167.3 235.6 168C234.8 169 234.5 170.6 233.5 170.7C233.1 170.7 232.8 170.4 232.8 170.3C232.5 170.5 231.2 170.5 231.3 170.9C231.3 171.1 232.4 171.8 234 171.5C234.8 171.3 234.8 169.9 236.5 169.1V171.4Z" fill="#274364"/>
<path fill-rule="evenodd" clip-rule="evenodd" d="M232.8 127.1L231.8 128.4C231.7 129.6 233 148.8 234.4 160.9C235.2 161 238.4 160.9 239.1 160.8C239 159.9 240.2 157.7 240 157.4C239.8 157 239.3 157.5 239.3 157.2C239.2 157 240.3 154.2 240.1 153.7C239.9 153.2 239.4 153.3 239.3 153.2C239.3 153.2 239 150.5 239 147.6C239 141.4 239 131.7 237.3 127.5L232.8 127.1Z" fill="#212B53"/>
<path d="M233.2 127.1H223.9V161.4H233.2V127.1Z" fill="#053C5E"/>
<path fill-rule="evenodd" clip-rule="evenodd" d="M236 115.6C236.5 115.5 238.3 115.5 239 115.7C239 111.6 237.9 107.8 235.5 107L236 115.6Z" fill="#C65A42"/>
<path fill-rule="evenodd" clip-rule="evenodd" d="M214.4 109.1C214.5 109.8 216 113.6 216.8 115.1C217.6 116.6 218.7 118.4 219.9 118C221.2 117.6 223.3 114.8 224 113.8C223.2 113.1 222.1 112.4 221.4 112.1C221.2 112.4 220.2 113.8 219.8 114.6C218.6 111.7 216.4 110.2 215.9 108.6C216.5 106.5 216.3 105.5 216 105.5C215.8 105.5 215.8 106.5 215.4 106.3C215 106.1 214.7 105.5 214.5 104.8C214.3 104.1 213.9 103.3 213.7 103.3C213.3 103.2 213.7 104.6 214 105.4C212.8 105.9 212.7 106.6 212.8 107.2C213 107.7 213.6 108.7 214.4 109.1Z" fill="#BE8E69"/>
<path fill-rule="evenodd" clip-rule="evenodd" d="M219.8 114.7C218.6 111.8 216.4 110.3 215.9 108.7C216 109.8 218.2 114.6 219.2 115.9C219.3 115.6 219.6 115.1 219.8 114.7Z" fill="#B9855B"/>
<path fill-rule="evenodd" clip-rule="evenodd" d="M236.6 114.899C236.4 114.899 236.2 114.899 236 114.899V115.499C236.1 115.499 236.3 115.499 236.4 115.399C237.1 115.299 238.4 115.399 239 115.499C239 115.299 239 115.099 239 114.899C238.5 114.899 237.4 114.899 236.6 114.899Z" fill="#FDF3F3"/>
<path fill-rule="evenodd" clip-rule="evenodd" d="M228.6 104.999C228.8 104.299 229 103.599 229 103.099C229 102.099 227.9 100.799 227.4 100.399C227.3 100.499 227.2 100.699 227 100.799C226 102.499 226.3 104.699 228.6 104.999Z" fill="#BE8E69"/>
<path fill-rule="evenodd" clip-rule="evenodd" d="M229.3 105.6C226.7 105.9 223.8 106.7 220.9 112.8C221.8 113.1 223.6 114.4 224.2 115.2C224.5 114.9 225 114.2 225.6 113.5C226 114.8 227.3 116.9 227.4 118.1C227.5 119.5 226 126.9 225.7 128.2C226.5 128.7 229.2 129.4 231.9 129.3C232.3 129.3 232.7 129.3 233 129.2C234.7 129 236.3 128.5 237.3 127.5C236.4 124.8 236 120.5 236 118.2C236 116 238.3 110.2 235.7 107.2C234.8 106 232.2 105.3 229.3 105.6Z" fill="#E77055"/>
<path fill-rule="evenodd" clip-rule="evenodd" d="M225.6 113.4C226 114.7 227.3 116.8 227.4 118C227.5 119.4 226 126.8 225.7 128.1C226 128.3 226.7 128.6 227.5 128.7C227.1 126.9 228.4 119.8 228.3 117.9C228.2 115.8 226.6 114.3 226.5 113.6C228 112.2 228.5 109.7 228 108.8C228.3 109.9 226.8 111.9 225.6 113.4Z" fill="#C65A42"/>
<path fill-rule="evenodd" clip-rule="evenodd" d="M224.7 114.5C223.4 113 222.3 112.4 221.2 112.1C221.1 112.3 221 112.5 220.9 112.7C221.8 113 223.6 114.3 224.2 115.1C224.3 115 224.5 114.8 224.7 114.5Z" fill="#FDF3F3"/>
<path fill-rule="evenodd" clip-rule="evenodd" d="M228.8 107.7C229.2 108.6 232 110.6 232.6 111.9C233.3 113.2 232.8 114.1 233.8 114.7C234.5 115.1 235.8 114.7 236.7 114.6C236.9 114.6 237.1 114.6 237.3 114.6C238.2 114.8 238.5 115.8 240.1 115.9C242.5 116.1 244.1 115.3 244.7 113.8C245.7 111.6 244.7 108.4 242.7 107.5C241.5 106.8 240.5 107 239.4 106C238 104.7 238.7 102.7 237.6 101.6C236.5 100.6 235.1 101.2 233.7 100.2C232.3 99.2001 232 97.9001 230.1 97.8001C228.3 97.7001 226.8 99.4001 227 100.8C227.1 100.6 227.2 100.5 227.4 100.4C227.9 100.8 229 102.1 229 103.1C229 103.6 228.8 104.3 228.6 105C228.5 105.2 228.5 105.4 228.5 105.7C228.4 106.3 228.4 107 228.8 107.7Z" fill="#FFD147"/>
<path fill-rule="evenodd" clip-rule="evenodd" d="M124.4 188.5C124.4 188.6 124.7 189.1 122.4 189.8C122 189.8 121.5 189.8 121.5 189.8C121.4 189.8 121.5 190.1 121.5 190.1C121.2 190.2 120.4 190.6 120.2 190.4C119.9 189.9 119.9 189 120.1 188.6H120.2C120.2 188.7 120.5 189 120.8 188.9C121.1 188.8 121.3 188.4 121.4 188.1C121.6 188.1 122.7 188.7 123.4 188.6C124 188.4 124.2 188.1 124.4 188.5Z" fill="#1A4F61"/>
<path fill-rule="evenodd" clip-rule="evenodd" d="M121.4 188.1L121 186.3L119.3 186.8L120.1 188.6C120.3 188.9 120.5 188.9 120.8 188.8C121.1 188.7 121.3 188.4 121.4 188.1Z" fill="#E5A786"/>
<path fill-rule="evenodd" clip-rule="evenodd" d="M132.4 187.1C132.5 187.2 132.9 187.5 131 189.1C130.6 189.2 130.2 189.4 130.2 189.4C130.2 189.5 130.3 189.7 130.3 189.7C130.1 189.9 129.5 190.6 129.2 190.4C128.7 190 128.4 189.2 128.4 188.8L128.5 188.7C128.6 188.8 128.9 189 129.2 188.7C129.4 188.5 129.5 188 129.4 187.8C129.6 187.7 130.9 187.9 131.5 187.5C132 187.2 132.1 186.9 132.4 187.1Z" fill="#1A4F61"/>
<path fill-rule="evenodd" clip-rule="evenodd" d="M129.4 187.899L128.4 186.399L127 187.499L128.4 188.899C128.7 189.099 128.9 189.099 129.1 188.899C129.4 188.599 129.5 188.199 129.4 187.899Z" fill="#E5A786"/>
<path fill-rule="evenodd" clip-rule="evenodd" d="M109.1 164L107.2 168.2L106 171L105.7 171.7H108.3H110.3H117.6L120.9 164H109.1Z" fill="url(#paint4_linear_3468_20250)"/>
<path fill-rule="evenodd" clip-rule="evenodd" d="M80.9 189.099C81.2 189.399 81.7 190.299 81.2 190.399C80.7 190.499 79.6 190.199 79.3 190.199C79 190.199 75.7 190.699 75.7 190.399C75.7 190.199 77.7 188.999 79 188.899L80.9 189.099Z" fill="#E5A786"/>
<path fill-rule="evenodd" clip-rule="evenodd" d="M92.8 154.6H97.3V158.1C97.3 159.3 96.3 160.3 95.1 160.3H92.9V154.6H92.8Z" fill="#E5A786"/>
<path fill-rule="evenodd" clip-rule="evenodd" d="M92.4 158.899L92.3 161.699L95.3 161.799C95.3 161.099 95.2 158.399 95.2 158.399L92.4 158.899Z" fill="#E4AB8D"/>
<path fill-rule="evenodd" clip-rule="evenodd" d="M94.8 159.4C94.9 159.2 94.8 158.9 95 158.7C95.2 158.5 95.4 158.5 95.7 158.2C96 157.8 95.7 156.8 96 156.6C96.3 156.4 97.3 156.8 97.6 156.6C97.8 156.4 97.6 156.2 97.7 156C97.8 155.8 98.5 155.5 98.3 155.1C98.2 154.7 97.1 154.3 96.7 153.9C96.3 153.6 96.2 152.7 95.5 152.5C94.8 152.3 93.5 153.3 92.8 153.4C92.2 153.5 91.5 153.2 90.9 153.6C90.3 154 90.8 156.1 90.7 156.6C90.6 157 90.2 157.3 90.1 157.5C90.1 157.8 91.4 158.3 91.5 158.8C91.8 159.8 92.3 160.1 92.9 160.1C93.7 159.9 94.6 159.7 94.8 159.4Z" fill="#231F20"/>
<path fill-rule="evenodd" clip-rule="evenodd" d="M121.1 186.6L118.3 187.5C117.3 184.8 116.4 185.1 116.2 184.8C116 184.5 116.4 183.8 116.3 183.5C116.2 183.3 115.1 182.8 114.9 182.4C114.7 182 115.2 181 115.1 180.6C114.9 180.3 113.8 176.2 112.8 176.1C111.7 176 104.5 189 96.8 187.6C89.1 186.2 93.5 179.2 93.5 179.2C96.3 176.4 103.6 170.6 111.9 171C117.5 171.4 119.6 174.2 121.1 186.6Z" fill="#01888B"/>
<path fill-rule="evenodd" clip-rule="evenodd" d="M89.8 165C89.8 165 89 163.2 87.6 164.4C86.2 165.6 79.9 183.2 78.9 189L80.9 189.2C81.8 186.8 86.3 178.9 87.4 174.1L89.8 165Z" fill="#212B53"/>
<path fill-rule="evenodd" clip-rule="evenodd" d="M89.4 185.6L87.7 187.3C88.8 189 91.2 190.6 97.7 190.5C104.2 190.4 112.7 178.2 114.9 177.2C115.8 179 120.2 182.2 122.2 183.9C122.9 184.5 123.1 184.8 123.1 185C123.1 185.3 122.7 185.7 123 186C123.2 186.4 125 186.2 125.7 188.6C126.1 188.4 128.3 186.7 128.4 186.4C127.5 184.8 120.2 171.2 115.7 171.4C111.3 171.6 102.3 177.7 98.9 180.9L89.4 185.6Z" fill="#63C0C4"/>
<path fill-rule="evenodd" clip-rule="evenodd" d="M113.8 171.199C114.8 171.099 117.8 171.299 117.8 171.699C117.8 171.999 114.7 171.899 113.4 172.199L113.8 171.199Z" fill="#E5A786"/>
<path fill-rule="evenodd" clip-rule="evenodd" d="M92.6 160.399C92 160.399 91.4 160.399 91.1 160.499C90.1 160.799 88.3 163.099 87.6 164.299V164.399C87.1 165.299 87 172.299 86.7 176.299C86.6 177.399 86.6 178.299 86.5 178.799C86.2 179.799 85.3 180.399 85.2 180.899C85.1 181.299 85.8 182.199 85.9 182.899C86 183.599 85.6 184.199 85.6 184.299C85.6 184.399 86.3 184.599 86.4 185.199C86.5 185.699 86.1 186.399 86 187.099C85.9 188.599 88.6 187.599 89.4 187.299C93.1 185.999 93.1 184.099 93.9 183.499C94.7 182.899 98.8 181.599 99.1 181.099C98.6 179.099 97.7 169.399 97.6 166.899C99.8 169.799 103.4 173.599 104 173.899C104.7 174.299 112 172.799 114.4 171.999L114.3 170.799C113.4 170.799 106.7 170.499 105.1 170.699C103.9 168.899 100.5 162.799 98.7 161.599C97.2 160.899 94.3 160.499 92.6 160.399Z" fill="#212B53"/>
<path fill-rule="evenodd" clip-rule="evenodd" d="M96.7 182.4C97.9 181.9 99 181.5 99.1 181.2C98.6 179.2 97.7 169.5 97.6 167L96.8 165.8C96.9 168.1 97.2 178 96.7 182.4Z" fill="#212B53"/>
<path fill-rule="evenodd" clip-rule="evenodd" d="M313.1 13.9998C310.5 14.1998 308.8 13.1998 306.8 13.1998C305.2 13.1998 296.7 16.4998 290.8 16.0998C284.9 15.6998 283.8 13.6998 283.2 13.5998C282.3 13.5998 280.7 14.9998 275.7 14.5998C273 14.3998 270.7 13.0998 270.8 11.6998C271.1 7.8998 278.2 9.4998 280.2 9.3998C280.5 7.5998 281.6 5.9998 288.2 6.2998C287.5 5.5998 287.8 0.999805 295.3 0.799805C303.8 1.2998 307 7.2998 308 8.0998C308.6 8.4998 312.2 7.5998 315 8.1998C319.9 9.1998 318.7 13.5998 313.1 13.9998Z" fill="#E7F2FB"/>
<defs>
<linearGradient id="paint0_linear_3468_20250" x1="71.1786" y1="168.039" x2="79.0063" y2="168.039" gradientUnits="userSpaceOnUse">
<stop stop-color="#274364"/>
<stop offset="1" stop-color="#315175"/>
</linearGradient>
<linearGradient id="paint1_linear_3468_20250" x1="58.9522" y1="168.688" x2="63.8348" y2="168.688" gradientUnits="userSpaceOnUse">
<stop stop-color="#274364"/>
<stop offset="1" stop-color="#315175"/>
</linearGradient>
<linearGradient id="paint2_linear_3468_20250" x1="250.741" y1="33.259" x2="255.466" y2="33.259" gradientUnits="userSpaceOnUse">
<stop stop-color="#315674"/>
<stop offset="0.9964" stop-color="#274E6D"/>
</linearGradient>
<linearGradient id="paint3_linear_3468_20250" x1="234.716" y1="29.3571" x2="251.319" y2="29.3571" gradientUnits="userSpaceOnUse">
<stop stop-color="#315674"/>
<stop offset="0.9964" stop-color="#274E6D"/>
</linearGradient>
<linearGradient id="paint4_linear_3468_20250" x1="105.708" y1="167.85" x2="120.905" y2="167.85" gradientUnits="userSpaceOnUse">
<stop stop-color="#315674"/>
<stop offset="0.9964" stop-color="#274E6D"/>
</linearGradient>
</defs>
</svg>
