<svg width="54" height="54" viewBox="0 0 54 54" fill="none" xmlns="http://www.w3.org/2000/svg">
<path d="M26.159 18.1085C25.3178 18.1085 24.5968 17.8681 23.996 17.2673C23.3951 16.6665 23.1548 15.9454 23.1548 15.1043C23.1548 14.2631 23.5153 13.5421 23.996 12.9412C24.5968 12.3404 25.3178 12.1001 26.159 12.1001C27.0002 12.1001 27.7212 12.3404 28.322 12.9412C28.9229 13.5421 29.1632 14.2631 29.1632 15.1043C29.1632 15.9454 28.8027 16.6665 28.322 17.2673C27.7212 17.8681 27.0002 18.1085 26.159 18.1085Z" fill="#FF7C44"/>
<path d="M21.3523 39.7391V37.0954L22.3136 36.9752C23.1548 36.8551 23.5153 36.7349 23.6355 36.6147C23.8758 36.4946 23.8758 36.2542 23.996 36.1341C24.1162 35.8937 24.1162 35.5332 24.2363 35.0526C24.2363 34.4517 24.3565 33.6105 24.3565 32.4089V27.3618C24.3565 25.6795 24.3565 24.9584 24.2363 24.5979C24.2363 24.1173 24.1162 23.8769 23.996 23.7568C23.8758 23.5164 23.7557 23.3963 23.5153 23.2761C23.3952 23.1559 23.0346 23.1559 22.554 23.1559L21.5926 23.0358L21.7128 20.5122L29.6439 20.3921V32.529V34.0912C29.6439 35.1727 29.7641 35.6534 29.7641 35.8937C29.8842 36.1341 30.0044 36.2542 30.0044 36.3744C30.1246 36.4946 30.3649 36.7349 31.5666 36.9752L32.5279 37.0954V39.6189H21.3523V39.7391Z" fill="#FF7C44"/>
<path fill-rule="evenodd" clip-rule="evenodd" d="M27 5.36515C15.0023 5.36515 5.36516 15.0022 5.36516 27C5.36516 38.9977 15.0023 48.6348 27 48.6348C38.8828 48.6348 48.6348 38.9925 48.6348 27C48.6348 15.0022 38.9977 5.36515 27 5.36515ZM2.25 27C2.25 13.2818 13.2818 2.24999 27 2.24999C40.7182 2.24999 51.75 13.2818 51.75 27C51.75 40.7234 40.5928 51.75 27 51.75C13.2818 51.75 2.25 40.7182 2.25 27Z" fill="#FF7C44"/>
</svg>
