<svg width="30" height="30" viewBox="0 0 30 30" fill="none" xmlns="http://www.w3.org/2000/svg">
<path fill-rule="evenodd" clip-rule="evenodd" d="M13.5897 5.25738L13.2067 7.36381L12.642 7.50498L12.6295 7.50749C12.4219 7.54901 12.1993 7.63611 12.0111 7.73025C11.8924 7.78959 11.7619 7.84758 11.645 7.89956L11.6391 7.90217C11.5153 7.95718 11.4059 8.0059 11.3113 8.05322L10.8084 8.30466L9.05414 7.07017L9.02129 7.03732C8.99636 7.01239 8.94215 6.97967 8.80981 6.97967C8.71796 6.97967 8.63239 7.00325 8.49067 7.14497L7.13036 8.50529L7.11466 8.51874C7.04689 8.57683 7.0113 8.65108 7.00565 8.74722C6.99972 8.84797 7.0284 8.97637 7.10642 9.10566L8.30466 10.8084L8.05322 11.3113C7.94531 11.5271 7.84697 11.7243 7.74858 11.9702C7.71515 12.0538 7.68545 12.1249 7.65911 12.1879C7.58527 12.3646 7.53769 12.4785 7.50749 12.6295L7.50498 12.6421L7.36106 13.2177L5.25128 13.5374C4.99457 13.6016 4.82655 13.8295 4.82655 14.0311V15.9151C4.82655 16.1555 4.98027 16.3455 5.25738 16.4103L7.3357 16.7882L7.49686 17.2716L7.50187 17.2917C7.55728 17.5134 7.59904 17.6727 7.67643 17.8275L7.68644 17.8475L7.69475 17.8683C7.80416 18.1418 7.89729 18.3719 8.03334 18.5987L8.04397 18.6164L8.30466 19.1378L7.09472 20.8571C6.96532 21.0383 6.96986 21.2804 7.14497 21.4555L8.57154 22.8821L8.5945 22.9127C8.63346 22.9646 8.72583 23.0203 8.86364 23.0203C8.99597 23.0203 9.05019 22.9876 9.07512 22.9627L9.10797 22.9298L10.8622 21.6953L11.3651 21.9468C11.4598 21.9941 11.5691 22.0428 11.6929 22.0978L11.6989 22.1005C11.8158 22.1525 11.9462 22.2104 12.0649 22.2697C12.2663 22.3705 12.4134 22.4417 12.5819 22.4821H13.2021L13.5374 24.6949C13.6016 24.9516 13.8295 25.1196 14.0311 25.1196H15.9689C16.2093 25.1196 16.3993 24.9659 16.4641 24.6888L16.8471 22.5824L17.4118 22.4412L17.4243 22.4387C17.631 22.3974 17.8475 22.3134 18.1167 22.2059L19.2454 21.6415L20.9997 22.876L21.0325 22.9089C21.0575 22.9338 21.1117 22.9665 21.244 22.9665C21.3359 22.9665 21.4214 22.9429 21.5632 22.8012L22.9235 21.4409L22.9392 21.4274C23.0069 21.3693 23.0425 21.2951 23.0482 21.199C23.0541 21.0982 23.0254 20.9698 22.9474 20.8405L21.7492 19.1378L22.0006 18.6349C22.151 18.334 22.2514 18.0836 22.3591 17.8144L22.3674 17.7937L22.3774 17.7736C22.454 17.6205 22.4953 17.5066 22.5359 17.3541V16.8517L24.7487 16.5165C25.0054 16.4522 25.1734 16.2243 25.1734 16.0227V14.0849C25.1734 13.8445 25.0197 13.6545 24.7426 13.5897L22.6362 13.2067L22.495 12.642L22.4925 12.6295C22.4512 12.4228 22.3673 12.2063 22.2597 11.9372L21.6953 10.8084L22.9031 9.09214L22.9053 9.08905C23.0347 8.90789 23.0301 8.66578 22.855 8.49067L21.4823 7.11793L21.4593 7.08732C21.4204 7.03538 21.328 6.97967 21.1902 6.97967C21.1702 6.97967 21.1319 6.98523 21.0739 7.00845C21.0186 7.03057 20.9596 7.06299 20.9018 7.10114L19.1916 8.30466L18.7083 8.06303C18.5728 8.00829 18.4507 7.95402 18.3373 7.90362L18.334 7.90217C18.212 7.84794 18.0997 7.7981 17.9759 7.74858C17.8923 7.71515 17.8213 7.68545 17.7582 7.65911C17.5815 7.58527 17.4677 7.53769 17.3167 7.50749L17.3041 7.50498L16.7285 7.36106L16.4088 5.25128C16.3446 4.99457 16.1167 4.82656 15.9151 4.82656H14.0849C13.8445 4.82656 13.6545 4.98026 13.5897 5.25738ZM12.5367 5.03275C12.6892 4.34658 13.2514 3.75 14.0849 3.75H15.9151C16.6785 3.75 17.3069 4.32901 17.4633 5.03275L17.4672 5.0507L17.6852 6.48927C17.8896 6.54525 18.0756 6.62359 18.2345 6.69047C18.2843 6.71147 18.3315 6.73134 18.3757 6.74903C18.5198 6.80664 18.6487 6.86394 18.768 6.91696L18.7712 6.9184C18.8813 6.96733 18.9835 7.01267 19.0933 7.05744L20.2939 6.21259L20.2995 6.20883C20.4878 6.0833 20.8131 5.90311 21.1902 5.90311C21.5784 5.90311 22.0092 6.05306 22.294 6.40712L23.6163 7.72943C24.1941 8.30729 24.1902 9.14059 23.7826 9.71297C23.7822 9.71357 23.7817 9.71418 23.7813 9.71478L22.9458 10.9021L23.2427 11.4958L23.2589 11.5364C23.3454 11.7526 23.447 12.0066 23.5148 12.2723L24.957 12.5345L24.9672 12.5367C25.6534 12.6892 26.25 13.2514 26.25 14.0849V16.0227C26.25 16.7861 25.671 17.4145 24.9672 17.5709L24.9493 17.5749L23.5303 17.7899C23.4851 17.9335 23.4302 18.0729 23.3506 18.2343C23.2529 18.4786 23.1482 18.7389 22.9994 19.0437L23.8458 20.2465L23.8536 20.259C24.2114 20.8315 24.2806 21.679 23.657 22.2298L22.3244 23.5624C22.0355 23.8513 21.6904 24.0431 21.244 24.0431C20.9583 24.0431 20.601 23.9743 20.3095 23.7067L19.1517 22.892L18.558 23.1888L18.5175 23.2051C18.3012 23.2916 18.0473 23.3932 17.7816 23.461L17.5194 24.9032L17.5171 24.9134C17.3646 25.5996 16.8025 26.1962 15.9689 26.1962H14.0311C13.2677 26.1962 12.6393 25.6172 12.4829 24.9134L12.4789 24.8955L12.2695 23.5132C11.9981 23.4401 11.7764 23.3292 11.5994 23.2406L11.5834 23.2327C11.4888 23.1853 11.3794 23.1366 11.2557 23.0816L11.2497 23.0789C11.1563 23.0375 11.0543 22.9921 10.9566 22.9453L9.79813 23.7606C9.50662 24.0282 9.1493 24.0969 8.86364 24.0969C8.47546 24.0969 8.04461 23.9469 7.75987 23.5929L6.38373 22.2167C5.80583 21.6388 5.8098 20.8055 6.21747 20.2331C6.21788 20.2325 6.21828 20.232 6.21868 20.2314L7.05048 19.0493C6.90067 18.7809 6.79528 18.5183 6.70295 18.2875C6.60776 18.0921 6.54804 17.8997 6.50295 17.731L5.04295 17.4655L5.03275 17.4633C4.34658 17.3108 3.75 16.7486 3.75 15.9151V14.0311C3.75 13.2677 4.32901 12.6393 5.03275 12.4829L5.0507 12.4789L6.48927 12.261C6.54525 12.0566 6.62359 11.8705 6.69046 11.7117C6.71147 11.6618 6.73134 11.6147 6.74903 11.5704C6.85297 11.3106 6.95695 11.0972 7.05421 10.9021L6.20803 9.69967L6.20024 9.6872C5.84241 9.11468 5.77321 8.26722 6.39678 7.71638L7.72943 6.38374C8.01832 6.09484 8.36338 5.90311 8.80981 5.90311C9.09547 5.90311 9.45279 5.97184 9.7443 6.23944L10.9028 7.05467C11.0005 7.00787 11.1026 6.96253 11.1959 6.92102L11.2018 6.9184C11.3256 6.86339 11.435 6.81468 11.5296 6.76735C11.736 6.66418 11.9955 6.55589 12.2723 6.48518L12.5345 5.04295L12.5367 5.03275Z" fill="white"/>
<path fill-rule="evenodd" clip-rule="evenodd" d="M10.5863 14.9462C10.5863 12.4958 12.5498 10.5323 15.0002 10.5323C17.4506 10.5323 19.4141 12.4958 19.4141 14.9462C19.4141 17.3966 17.4506 19.3601 15.0002 19.3601C12.5498 19.3601 10.5863 17.3966 10.5863 14.9462ZM15.0002 11.6089C13.1444 11.6089 11.6629 13.0904 11.6629 14.9462C11.6629 16.8021 13.1444 18.2835 15.0002 18.2835C16.856 18.2835 18.3375 16.8021 18.3375 14.9462C18.3375 13.0904 16.856 11.6089 15.0002 11.6089Z" fill="white"/>
</svg>
