<svg width="30" height="30" viewBox="0 0 30 30" fill="none" xmlns="http://www.w3.org/2000/svg">
<path fill-rule="evenodd" clip-rule="evenodd" d="M15 2.98064C8.33458 2.98064 2.98064 8.33458 2.98064 15C2.98064 21.6654 8.33458 27.0194 15 27.0194C21.6016 27.0194 27.0194 21.6625 27.0194 15C27.0194 8.33458 21.6654 2.98064 15 2.98064ZM1.25 15C1.25 7.37878 7.37878 1.25 15 1.25C22.6212 1.25 28.75 7.37878 28.75 15C28.75 22.6241 22.5515 28.75 15 28.75C7.37878 28.75 1.25 22.6212 1.25 15Z" fill="white"/>
<path d="M12.625 20.7813C12.375 20.7813 12.125 20.6563 11.875 20.5313L7.99997 16.6563C7.49997 16.1563 7.49997 15.5313 7.87497 15.1563C8.24997 14.7813 8.87497 14.7813 9.37497 15.1563L12.5 18.2813L20.5 10.2813C20.875 9.90625 21.5 9.90625 22 10.2813C22.375 10.6563 22.375 11.2813 22 11.7813L13.25 20.5313C13.125 20.6563 12.875 20.7813 12.625 20.7813Z" fill="white"/>
</svg>
