<svg width="30" height="30" viewBox="0 0 30 30" fill="none" xmlns="http://www.w3.org/2000/svg">
<path d="M22.6 17.525H16.75V23.375H22.6V17.525Z" fill="white"/>
<path d="M5.83752 27.4125C5.17448 27.4125 4.5386 27.1491 4.06976 26.6803C3.60092 26.2114 3.33752 25.5755 3.33752 24.9125V7.73749C3.33752 7.07445 3.60092 6.43857 4.06976 5.96973C4.5386 5.50089 5.17448 5.23749 5.83752 5.23749H7.22502V2.58749H9.72502V5.19999H20.375V2.58749H22.875V5.19999H24.2625C24.9256 5.19999 25.5614 5.46339 26.0303 5.93223C26.4991 6.40107 26.7625 7.03695 26.7625 7.69999V24.8875C26.7625 25.5505 26.4991 26.1864 26.0303 26.6553C25.5614 27.1241 24.9256 27.3875 24.2625 27.3875L5.83752 27.4125ZM4.58752 24.8125C4.58752 25.1672 4.72844 25.5074 4.97927 25.7582C5.2301 26.0091 5.5703 26.15 5.92502 26.15H24.1C24.4548 26.15 24.7949 26.0091 25.0458 25.7582C25.2966 25.5074 25.4375 25.1672 25.4375 24.8125V8.92499H4.56252L4.58752 24.8125Z" fill="white"/>
</svg>
