<svg width="30" height="30" viewBox="0 0 30 30" fill="none" xmlns="http://www.w3.org/2000/svg">
<path d="M14.5328 10.0603C14.0655 10.0603 13.6649 9.92676 13.3311 9.59296C12.9973 9.25916 12.8638 8.8586 12.8638 8.39128C12.8638 7.92396 13.0641 7.5234 13.3311 7.1896C13.6649 6.85579 14.0655 6.72227 14.5328 6.72227C15.0001 6.72227 15.4007 6.85579 15.7345 7.1896C16.0683 7.5234 16.2018 7.92396 16.2018 8.39128C16.2018 8.8586 16.0015 9.25916 15.7345 9.59296C15.4007 9.92676 15.0001 10.0603 14.5328 10.0603Z" fill="white"/>
<path d="M11.8623 22.0773V20.6086L12.3964 20.5418C12.8637 20.475 13.064 20.4083 13.1307 20.3415C13.2643 20.2748 13.2643 20.1412 13.331 20.0745C13.3978 19.941 13.3978 19.7407 13.4645 19.4736C13.4645 19.1398 13.5313 18.6725 13.5313 18.0049V15.201C13.5313 14.2664 13.5313 13.8658 13.4645 13.6655C13.4645 13.3985 13.3978 13.265 13.331 13.1982C13.2643 13.0647 13.1975 12.9979 13.064 12.9312C12.9972 12.8644 12.7969 12.8644 12.5299 12.8644L11.9958 12.7976L12.0626 11.3957L16.4687 11.3289V18.0717V18.9396C16.4687 19.5404 16.5355 19.8074 16.5355 19.941C16.6023 20.0745 16.669 20.1412 16.669 20.208C16.7358 20.2748 16.8693 20.4083 17.5369 20.5418L18.071 20.6086V22.0105H11.8623V22.0773Z" fill="white"/>
<path fill-rule="evenodd" clip-rule="evenodd" d="M15 2.98064C8.33458 2.98064 2.98064 8.33458 2.98064 15C2.98064 21.6654 8.33458 27.0194 15 27.0194C21.6016 27.0194 27.0194 21.6625 27.0194 15C27.0194 8.33458 21.6654 2.98064 15 2.98064ZM1.25 15C1.25 7.37878 7.37878 1.25 15 1.25C22.6212 1.25 28.75 7.37878 28.75 15C28.75 22.6241 22.5515 28.75 15 28.75C7.37878 28.75 1.25 22.6212 1.25 15Z" fill="white"/>
</svg>
