<svg width="30" height="30" viewBox="0 0 30 30" fill="none" xmlns="http://www.w3.org/2000/svg">
<path d="M15.2881 3.96584C15.3813 3.96584 15.4746 4.00581 15.5546 4.07244L26.5084 14.1734C26.7749 14.4133 26.6017 14.853 26.2419 14.853H24.3363C24.1231 14.853 23.9498 15.0262 23.9498 15.2395V24.2344C23.9498 24.4476 23.7766 24.6208 23.5634 24.6208H18.8994C18.6861 24.6208 18.5129 24.4476 18.5129 24.2344V18.6642C18.5129 18.451 18.3397 18.2777 18.1265 18.2777H12.503C12.2898 18.2777 12.1165 18.451 12.1165 18.6642V24.2344C12.1165 24.4476 11.9433 24.6208 11.7301 24.6208H7.02608C6.81286 24.6208 6.63963 24.4476 6.63963 24.2344V15.2395C6.63963 15.0262 6.46639 14.853 6.25318 14.853H4.34759C3.9878 14.853 3.82789 14.4133 4.08108 14.1734L15.0215 4.05912C15.1015 3.99249 15.1948 3.96584 15.2881 3.96584ZM15.2881 2.5C14.8217 2.5 14.3819 2.67324 14.0354 2.99305L3.09497 13.094C2.53529 13.6137 2.34873 14.4133 2.62857 15.1328C2.90841 15.8524 3.58802 16.3055 4.34759 16.3055H5.18712V24.2344C5.18712 25.2604 6.01332 26.0866 7.0394 26.0866H11.7034C12.7295 26.0866 13.5557 25.2604 13.5557 24.2344V19.7302H17.0337V24.2344C17.0337 25.2604 17.8599 26.0866 18.886 26.0866H23.55C24.5761 26.0866 25.4023 25.2604 25.4023 24.2344V16.3055H26.2419C27.0148 16.3055 27.681 15.8391 27.9609 15.1328C28.2407 14.4133 28.0542 13.6137 27.4945 13.094L16.5407 2.99305C16.1942 2.67324 15.7545 2.5 15.2881 2.5Z" fill="white"/>
</svg>
