<svg width="54" height="54" viewBox="0 0 54 54" fill="none" xmlns="http://www.w3.org/2000/svg">
<path d="M40.6799 31.545H30.1499V42.075H40.6799V31.545Z" fill="#FF7C44"/>
<path d="M10.5076 49.3425C9.31409 49.3425 8.1695 48.8684 7.32559 48.0245C6.48167 47.1806 6.00757 46.036 6.00757 44.8425V13.9275C6.00757 12.734 6.48167 11.5894 7.32559 10.7455C8.1695 9.90161 9.31409 9.4275 10.5076 9.4275H13.0051V4.6575H17.5051V9.36H36.6751V4.6575H41.1751V9.36H43.6726C44.866 9.36 46.0106 9.83411 46.8545 10.678C47.6985 11.5219 48.1726 12.6665 48.1726 13.86V44.7975C48.1726 45.991 47.6985 47.1356 46.8545 47.9795C46.0106 48.8234 44.866 49.2975 43.6726 49.2975L10.5076 49.3425ZM8.25757 44.6625C8.25757 45.301 8.51121 45.9134 8.96271 46.3649C9.4142 46.8163 10.0266 47.07 10.6651 47.07H43.3801C44.0186 47.07 44.6309 46.8163 45.0824 46.3649C45.5339 45.9134 45.7876 45.301 45.7876 44.6625V16.065H8.21257L8.25757 44.6625Z" fill="#FF7C44"/>
</svg>
