<svg width="54" height="54" viewBox="0 0 54 54" fill="none" xmlns="http://www.w3.org/2000/svg">
<path d="M47.925 50.3438H6.075C5.175 50.3438 4.5 49.6688 4.5 48.7688C4.5 47.8688 5.175 47.1938 6.075 47.1938H47.925C48.825 47.1938 49.5 47.8688 49.5 48.7688C49.5 49.6688 48.825 50.3438 47.925 50.3438Z" fill="#FF7C44"/>
<path d="M12.375 44.2688C11.475 44.2688 10.575 43.3688 10.575 42.4688V24.2438C10.575 23.3438 11.475 22.4438 12.375 22.4438C13.275 22.4438 14.175 23.3438 14.175 24.2438V42.4688C14.175 43.5938 13.275 44.2688 12.375 44.2688Z" fill="#FF7C44"/>
<path d="M26.9998 44.0438C26.0998 44.0438 25.4248 43.3688 25.4248 42.4688V24.2438C25.4248 23.3438 26.0998 22.6688 26.9998 22.6688C27.8998 22.6688 28.5748 23.3438 28.5748 24.2438V42.4688C28.5748 43.3688 27.8998 44.0438 26.9998 44.0438Z" fill="#FF7C44"/>
<path d="M41.1751 44.0438C40.2751 44.0438 39.6001 43.3688 39.6001 42.4688V24.2438C39.6001 23.3438 40.2751 22.6688 41.1751 22.6688C42.0751 22.6688 42.7501 23.3438 42.7501 24.2438V42.4688C42.5251 43.3688 41.8501 44.0438 41.1751 44.0438Z" fill="#FF7C44"/>
<path d="M47.475 19.5187H6.52495C5.62495 19.5187 4.94995 19.0687 4.72495 18.1687C4.49995 17.2687 4.72495 16.5937 5.62495 16.1437L26.1 4.66875C26.775 4.44375 27.225 4.44375 27.9 4.66875L48.375 16.1437C49.275 16.5937 49.5 17.2687 49.275 18.1687C49.05 19.0687 48.375 19.5187 47.475 19.5187ZM11.025 16.5937H42.975L27 7.59375L11.025 16.5937Z" fill="#FF7C44"/>
</svg>
