<svg width="30" height="30" viewBox="0 0 30 30" fill="none" xmlns="http://www.w3.org/2000/svg">
<path d="M26.625 27.9688H3.375C2.875 27.9688 2.5 27.5938 2.5 27.0938C2.5 26.5938 2.875 26.2188 3.375 26.2188H26.625C27.125 26.2188 27.5 26.5938 27.5 27.0938C27.5 27.5938 27.125 27.9688 26.625 27.9688Z" fill="white"/>
<path d="M6.875 24.5937C6.375 24.5937 5.875 24.0938 5.875 23.5938V13.4688C5.875 12.9688 6.375 12.4688 6.875 12.4688C7.375 12.4688 7.875 12.9688 7.875 13.4688V23.5938C7.875 24.2188 7.375 24.5937 6.875 24.5937Z" fill="white"/>
<path d="M15 24.4688C14.5 24.4688 14.125 24.0938 14.125 23.5938V13.4688C14.125 12.9688 14.5 12.5938 15 12.5938C15.5 12.5938 15.875 12.9688 15.875 13.4688V23.5938C15.875 24.0938 15.5 24.4688 15 24.4688Z" fill="white"/>
<path d="M22.875 24.4688C22.375 24.4688 22 24.0938 22 23.5938V13.4688C22 12.9688 22.375 12.5938 22.875 12.5938C23.375 12.5938 23.75 12.9688 23.75 13.4688V23.5938C23.625 24.0938 23.25 24.4688 22.875 24.4688Z" fill="white"/>
<path d="M26.375 10.8438H3.62504C3.12504 10.8438 2.75004 10.5938 2.62504 10.0938C2.50004 9.59375 2.62504 9.21875 3.12504 8.96875L14.5 2.59375C14.875 2.46875 15.125 2.46875 15.5 2.59375L26.875 8.96875C27.375 9.21875 27.5 9.59375 27.375 10.0938C27.25 10.5938 26.875 10.8438 26.375 10.8438ZM6.12504 9.21875H23.875L15 4.21875L6.12504 9.21875Z" fill="white"/>
</svg>
