<svg width="30" height="30" viewBox="0 0 30 30" fill="none" xmlns="http://www.w3.org/2000/svg">
<path fill-rule="evenodd" clip-rule="evenodd" d="M6.30058 4.11062C6.61507 3.8494 6.97092 3.78665 7.21635 3.78665C7.49748 3.78665 7.74898 3.86364 7.95038 3.96434C8.5561 4.2672 8.82343 4.86311 8.82343 5.386V6.30758H10.9823C12.5196 6.30758 13.9217 6.81701 15.0689 7.71277C16.1939 6.84783 17.6191 6.30758 19.1482 6.30758H21.2452V5.44786C21.2452 4.96331 21.4737 4.41675 21.9922 4.09647C22.1495 3.98998 22.2998 3.93617 22.3985 3.90796C22.5535 3.86369 22.7015 3.84851 22.8291 3.84851C22.9567 3.84851 23.1047 3.86369 23.2597 3.90796C23.3777 3.94169 23.5718 4.01264 23.7629 4.16854L28.2697 7.57914C28.5682 7.78008 28.76 8.08197 28.8299 8.40804C28.8949 8.7114 28.8388 8.96222 28.8146 9.05917C28.8025 9.10725 28.7887 9.15231 28.7771 9.18778C28.7378 9.38071 28.6675 9.52777 28.6353 9.59212C28.5735 9.71575 28.4712 9.88512 28.3173 10.039L28.2567 10.0996L23.6444 13.5901C23.3299 13.8513 22.974 13.914 22.7286 13.914C22.4475 13.914 22.196 13.837 21.9946 13.7363C21.3888 13.4335 21.1215 12.8376 21.1215 12.3147V11.455H19.0245C18.2266 11.455 17.608 12.0736 17.608 12.8715V24.5018C17.608 24.8762 17.4781 25.2861 17.1587 25.6054C16.8394 25.9248 16.4295 26.0547 16.0551 26.0547H13.8899C13.5154 26.0547 13.1056 25.9248 12.7862 25.6054C12.4669 25.2861 12.3369 24.8762 12.3369 24.5018V12.7477C12.3369 11.9499 11.7183 11.3312 10.9204 11.3312H8.82343V12.191C8.82343 12.6755 8.59494 13.2221 8.07648 13.5423C7.91919 13.6489 7.76886 13.7027 7.67013 13.7309C7.51518 13.7751 7.36718 13.7903 7.23955 13.7903C7.11192 13.7903 6.96392 13.7751 6.80897 13.7309C6.69094 13.6971 6.49681 13.6262 6.30577 13.4703L1.68822 9.97591L1.62763 9.91532C1.47369 9.76139 1.37142 9.59201 1.30961 9.46838C1.26657 9.3823 1.13965 9.12024 1.13965 8.78848C1.13965 8.45673 1.26657 8.19466 1.30961 8.10859C1.37142 7.98496 1.47369 7.81558 1.62763 7.66165L1.68822 7.60106L6.30058 4.11062ZM7.14796 5.04663C7.12751 5.053 7.11137 5.06178 7.09745 5.07372L7.083 5.0861L2.5112 8.54584C2.49755 8.55954 2.48233 8.57796 2.46682 8.60071C2.45132 8.62344 2.43805 8.64679 2.42764 8.6676C2.41846 8.68596 2.40831 8.70802 2.40032 8.73329C2.39198 8.75965 2.38965 8.77836 2.38965 8.78848C2.38965 8.79861 2.39198 8.81732 2.40032 8.84368C2.40831 8.86894 2.41846 8.89101 2.42764 8.90936C2.43805 8.93018 2.45132 8.95353 2.46682 8.97626C2.48233 8.99901 2.49755 9.01743 2.5112 9.03112L7.08313 12.491L7.09513 12.501C7.10957 12.5131 7.12985 12.5225 7.15237 12.529C7.17876 12.5365 7.20909 12.5403 7.23955 12.5403C7.27002 12.5403 7.30034 12.5365 7.32673 12.529C7.34514 12.5237 7.363 12.5162 7.3772 12.5062L7.39578 12.4932L7.41526 12.4815C7.51698 12.4206 7.57343 12.3076 7.57343 12.191V10.0812H10.9204C12.4087 10.0812 13.5869 11.2595 13.5869 12.7477V24.5018C13.5869 24.5941 13.6179 24.6693 13.6701 24.7215C13.7223 24.7737 13.7976 24.8047 13.8899 24.8047H16.0551C16.1474 24.8047 16.2227 24.7737 16.2748 24.7215C16.327 24.6693 16.358 24.5941 16.358 24.5018V12.8715C16.358 11.3832 17.5363 10.205 19.0245 10.205H22.3715V12.3147C22.3715 12.4393 22.4346 12.5588 22.5536 12.6183C22.6149 12.649 22.6758 12.664 22.7286 12.664C22.7505 12.664 22.7749 12.6609 22.797 12.6541C22.8174 12.6477 22.8336 12.6389 22.8475 12.627L22.8619 12.6146L27.4337 9.15485C27.4474 9.14115 27.4626 9.12274 27.4781 9.09999C27.4936 9.07725 27.5069 9.05391 27.5173 9.03309C27.5244 9.01882 27.5321 9.00258 27.539 8.98369C27.5462 8.96421 27.5511 8.94613 27.5536 8.93079L27.5626 8.87433L27.5817 8.82045C27.5836 8.8151 27.5857 8.80907 27.5878 8.80262C27.5895 8.79768 27.5912 8.7925 27.5929 8.78718C27.5969 8.77453 27.5999 8.76385 27.6019 8.75599C27.6054 8.74175 27.6084 8.72768 27.6096 8.71172C27.6109 8.69544 27.6101 8.68144 27.6076 8.66996C27.6026 8.64641 27.59 8.62782 27.5698 8.61481L27.55 8.60208L22.9855 5.14787L22.9735 5.1378C22.9591 5.12569 22.9388 5.1163 22.9163 5.10987C22.8899 5.10233 22.8596 5.09851 22.8291 5.09851C22.7986 5.09851 22.7683 5.10233 22.7419 5.10987C22.7235 5.11513 22.7057 5.12263 22.6915 5.13261L22.6729 5.14566L22.6534 5.15733C22.5517 5.21828 22.4952 5.33119 22.4952 5.44786V7.55758H19.1482C17.7548 7.55758 16.4534 8.11518 15.4858 8.99184L15.0638 9.37416L14.6439 8.9895C13.6485 8.0775 12.3879 7.55758 10.9823 7.55758H7.57343V5.386C7.57343 5.26141 7.51031 5.14185 7.39136 5.08238C7.33004 5.05172 7.26916 5.03665 7.21635 5.03665C7.19445 5.03665 7.17002 5.03975 7.14796 5.04663Z" fill="white"/>
</svg>
