<svg width="54" height="54" viewBox="0 0 54 54" fill="none" xmlns="http://www.w3.org/2000/svg">
<path fill-rule="evenodd" clip-rule="evenodd" d="M11.3412 7.39912C11.9073 6.92893 12.5478 6.81598 12.9896 6.81598C13.4956 6.81598 13.9483 6.95456 14.3108 7.13582C15.4011 7.68097 15.8823 8.7536 15.8823 9.6948V11.3537H19.7683C22.5354 11.3537 25.0593 12.2706 27.1243 13.883C29.1492 12.3261 31.7146 11.3537 34.467 11.3537H38.2416V9.80616C38.2416 8.93397 38.6529 7.95015 39.5861 7.37366C39.8692 7.18196 40.1398 7.08511 40.3175 7.03434C40.5964 6.95465 40.8628 6.92733 41.0925 6.92733C41.3223 6.92733 41.5887 6.95465 41.8676 7.03434C42.0801 7.09504 42.4295 7.22276 42.7733 7.50339L50.8857 13.6425C51.4228 14.0041 51.7682 14.5476 51.8939 15.1345C52.0109 15.6805 51.91 16.132 51.8663 16.3065C51.8447 16.3931 51.8199 16.4742 51.7989 16.538C51.7283 16.8853 51.6017 17.15 51.5437 17.2658C51.4325 17.4884 51.2484 17.7932 50.9713 18.0703L50.8622 18.1794L42.56 24.4621C41.9939 24.9323 41.3534 25.0453 40.9116 25.0453C40.4056 25.0453 39.9529 24.9067 39.5904 24.7254C38.5001 24.1803 38.0189 23.1077 38.0189 22.1665V20.619H34.2443C32.8081 20.619 31.6946 21.7325 31.6946 23.1686V44.1032C31.6946 44.7772 31.4607 45.5149 30.8858 46.0897C30.311 46.6646 29.5733 46.8985 28.8993 46.8985H25.0019C24.3279 46.8985 23.5902 46.6646 23.0153 46.0897C22.4405 45.5149 22.2066 44.7772 22.2066 44.1032V22.9459C22.2066 21.5097 21.0931 20.3963 19.6569 20.3963H15.8823V21.9437C15.8823 22.8159 15.471 23.7997 14.5378 24.3762C14.2547 24.5679 13.9841 24.6648 13.8064 24.7156C13.5275 24.7953 13.2611 24.8226 13.0313 24.8226C12.8016 24.8226 12.5352 24.7953 12.2563 24.7156C12.0438 24.6549 11.6944 24.5271 11.3505 24.2465L3.03894 17.9566L2.92988 17.8476C2.6528 17.5705 2.4687 17.2656 2.35744 17.0431C2.27997 16.8882 2.05151 16.4164 2.05151 15.8193C2.05151 15.2221 2.27997 14.7504 2.35744 14.5955C2.4687 14.3729 2.65279 14.0681 2.92987 13.791L3.03894 13.6819L11.3412 7.39912ZM12.8665 9.08394C12.8297 9.09541 12.8006 9.11121 12.7755 9.1327L12.7496 9.15498L4.52031 15.3825C4.49574 15.4072 4.46835 15.4403 4.44042 15.4813C4.41252 15.5222 4.38863 15.5642 4.3699 15.6017C4.35338 15.6347 4.3351 15.6744 4.32072 15.7199C4.30571 15.7674 4.30151 15.801 4.30151 15.8193C4.30151 15.8375 4.30571 15.8712 4.32072 15.9186C4.3351 15.9641 4.35338 16.0038 4.3699 16.0369C4.38863 16.0743 4.41252 16.1164 4.44042 16.1573C4.46835 16.1982 4.49574 16.2314 4.52031 16.256L12.7498 22.4837L12.7714 22.5019C12.7974 22.5237 12.8339 22.5406 12.8744 22.5521C12.9219 22.5657 12.9765 22.5726 13.0313 22.5726C13.0862 22.5726 13.1408 22.5657 13.1883 22.5521C13.2214 22.5427 13.2535 22.5292 13.2791 22.5112L13.3126 22.4877L13.3476 22.4667C13.5307 22.357 13.6323 22.1538 13.6323 21.9437V18.1463H19.6569C22.3357 18.1463 24.4566 20.2671 24.4566 22.9459V44.1032C24.4566 44.2693 24.5124 44.4048 24.6063 44.4988C24.7003 44.5927 24.8357 44.6485 25.0019 44.6485H28.8993C29.0654 44.6485 29.2009 44.5927 29.2948 44.4988C29.3888 44.4048 29.4446 44.2693 29.4446 44.1032V23.1686C29.4446 20.4898 31.5655 18.369 34.2443 18.369H40.2689V22.1665C40.2689 22.3907 40.3825 22.6059 40.5966 22.713C40.707 22.7682 40.8165 22.7953 40.9116 22.7953C40.951 22.7953 40.995 22.7897 41.0347 22.7773C41.0715 22.7659 41.1006 22.7501 41.1256 22.7286L41.1516 22.7063L49.3809 16.4787C49.4055 16.4541 49.4328 16.4209 49.4608 16.38C49.4887 16.3391 49.5126 16.297 49.5313 16.2596C49.5441 16.2339 49.5578 16.2046 49.5704 16.1706C49.5834 16.1356 49.5922 16.103 49.5966 16.0754L49.6128 15.9738L49.6472 15.8768C49.6506 15.8672 49.6544 15.8563 49.6583 15.8447C49.6613 15.8358 49.6643 15.8265 49.6673 15.8169C49.6745 15.7942 49.68 15.7749 49.6835 15.7608C49.6899 15.7352 49.6952 15.7098 49.6975 15.6811C49.6998 15.6518 49.6983 15.6266 49.6939 15.6059C49.6848 15.5635 49.6621 15.5301 49.6258 15.5067L49.5902 15.4838L41.3741 9.26617L41.3525 9.24804C41.3265 9.22624 41.29 9.20935 41.2495 9.19777C41.202 9.1842 41.1474 9.17733 41.0925 9.17733C41.0377 9.17733 40.9831 9.1842 40.9356 9.19777C40.9025 9.20723 40.8703 9.22074 40.8448 9.2387L40.8113 9.2622L40.7763 9.28321C40.5932 9.3929 40.4916 9.59616 40.4916 9.80616V13.6037H34.467C31.9588 13.6037 29.6163 14.6073 27.8746 16.1853L27.115 16.8735L26.3593 16.1811C24.5675 14.5395 22.2984 13.6037 19.7683 13.6037H13.6323V9.6948C13.6323 9.47054 13.5187 9.25533 13.3046 9.14828C13.1942 9.0931 13.0846 9.06598 12.9896 9.06598C12.9501 9.06598 12.9062 9.07156 12.8665 9.08394Z" fill="#FF7C44"/>
</svg>
